<svg preserveAspectRatio="none" width="100%" height="100%" overflow="visible" style="display: block;" viewBox="0 0 43 28" fill="none" xmlns="http://www.w3.org/2000/svg">
<g id="create icon">
<path id="Combined Shape" fill-rule="evenodd" clip-rule="evenodd" d="M7.49994 12.8C7.49994 8.31958 7.49994 6.07937 8.37189 4.36808C9.13888 2.86278 10.3627 1.63893 11.868 0.871948C13.5793 0 15.8195 0 20.2999 0L30.1999 0C34.6803 0 36.9205 0 38.6318 0.871948C40.1371 1.63893 41.361 2.86278 42.128 4.36808C42.9999 6.07937 42.9999 8.31958 42.9999 12.8V15.2C42.9999 19.6804 42.9999 21.9206 42.128 23.6319C41.361 25.1372 40.1371 26.3611 38.6318 27.1281C36.9205 28 34.6803 28 30.1999 28H20.2999C15.8195 28 13.5793 28 11.868 27.1281C10.3627 26.3611 9.13888 25.1372 8.37189 23.6319C7.49994 21.9206 7.49994 19.6804 7.49994 15.2V12.8Z" fill="var(--fill-0, #FA2D6C)"/>
<path id="Combined Shape_2" fill-rule="evenodd" clip-rule="evenodd" d="M0 12.8C0 8.31958 0 6.07937 0.871948 4.36808C1.63893 2.86278 2.86278 1.63893 4.36808 0.871948C6.07937 0 8.31958 0 12.8 0L22.7 0C27.1804 0 29.4206 0 31.1319 0.871948C32.6372 1.63893 33.861 2.86278 34.628 4.36808C35.5 6.07937 35.5 8.31958 35.5 12.8V15.2C35.5 19.6804 35.5 21.9206 34.628 23.6319C33.861 25.1372 32.6372 26.3611 31.1319 27.1281C29.4206 28 27.1804 28 22.7 28H12.8C8.31958 28 6.07937 28 4.36808 27.1281C2.86278 26.3611 1.63893 25.1372 0.871948 23.6319C0 21.9206 0 19.6804 0 15.2V12.8Z" fill="var(--fill-0, #20D5EC)"/>
<rect id="Rectangle" x="3.49983" width="36" height="28" rx="8" fill="var(--fill-0, #FAFAFA)"/>
<path id="Combined Shape_3" d="M21.9998 7.5C22.2759 7.5 22.4998 7.72386 22.4998 8V12.75H27.2498C27.5259 12.75 27.7498 12.9739 27.7498 13.25V14.75C27.7498 15.0261 27.5259 15.25 27.2498 15.25H22.4998V20C22.4998 20.2761 22.2759 20.5 21.9998 20.5H20.4998C20.2237 20.5 19.9998 20.2761 19.9998 20V15.25H15.2498C14.9736 15.25 14.7498 15.0261 14.7498 14.75V13.25C14.7498 12.9739 14.9736 12.75 15.2498 12.75H19.9998V8C19.9998 7.72389 20.2237 7.50005 20.4998 7.5H21.9998Z" fill="var(--fill-0, black)"/>
</g>
</svg>
