<svg preserveAspectRatio="none" width="100%" height="100%" overflow="visible" style="display: block;" viewBox="0 0 20 20" fill="none" xmlns="http://www.w3.org/2000/svg">
<g id="Follow Button">
<rect width="20" height="20" rx="10" fill="var(--fill-0, #FE2C55)"/>
<path id="Plus" d="M10 5C10.5523 5 11 5.44772 11 6V9H14C14.5523 9 15 9.44772 15 10C15 10.5523 14.5523 11 14 11H11V14C11 14.5523 10.5523 15 10 15C9.44772 15 9 14.5523 9 14V11H6C5.44772 11 5 10.5523 5 10C5 9.44772 5.44772 9 6 9H9V6C9 5.44772 9.44772 5 10 5Z" fill="var(--fill-0, white)"/>
</g>
</svg>
