<svg preserveAspectRatio="none" width="100%" height="100%" overflow="visible" style="display: block;" viewBox="0 0 21.7421 21.5496" fill="none" xmlns="http://www.w3.org/2000/svg">
<path id="live_entrance" d="M15.6704 1.63192C15.8787 1.45072 15.9008 1.1349 15.7196 0.926524L15.0634 0.171918C14.8822 -0.0364605 14.5664 -0.058494 14.358 0.122705L10.8062 3.21127L7.434 0.14566C7.22967 -0.0400931 6.91345 -0.0250348 6.72769 0.179294L6.05502 0.919234C5.86927 1.12356 5.88433 1.43979 6.08865 1.62554L8.22474 3.56744C3.60538 3.70176 1.49563 4.62973 0.642953 7.5498H2.76199C2.9247 7.17807 3.11362 6.91445 3.32171 6.71534C3.65807 6.39351 4.20501 6.08682 5.22534 5.86985C6.26369 5.64905 7.6539 5.54958 9.54694 5.54958H12.2344C14.1275 5.54958 15.5177 5.64905 16.556 5.86985C17.5764 6.08682 18.1233 6.39351 18.4597 6.71534C18.6678 6.91445 18.8567 7.17807 19.0194 7.5498H21.1384C20.2791 4.60693 18.143 3.68739 13.448 3.56444L15.6704 1.63192ZM9.54694 21.5496C3.99938 21.5496 1.57333 20.7348 0.643084 17.5498H2.76219C2.92485 17.9213 3.11371 18.1848 3.32171 18.3838C3.65807 18.7057 4.20501 19.0123 5.22534 19.2293C6.26369 19.4501 7.6539 19.5496 9.54694 19.5496H12.2344C14.1275 19.5496 15.5177 19.4501 16.556 19.2293C17.5764 19.0123 18.1233 18.7057 18.4597 18.3838C18.6677 18.1848 18.8565 17.9213 19.0192 17.5498H21.1383C20.2081 20.7348 17.782 21.5496 12.2344 21.5496H9.54694ZM1.848 8.8973H0V16.2998H4.7145V14.6303H1.848V8.8973ZM7.6796 8.8973H5.8316V16.2998H7.6796V8.8973ZM10.7033 8.8973H8.76077L10.7453 16.2998H13.7693L15.7643 8.8973H13.8008L12.2573 15.2078L10.7033 8.8973ZM21.7106 8.8973H16.8491V16.2998H21.7421V14.7353H18.6866V13.1813H21.0491V11.6063H18.6866V10.4618H21.7106V8.8973Z" fill="var(--fill-0, white)"/>
</svg>
