<svg preserveAspectRatio="none" width="100%" height="100%" overflow="visible" style="display: block;" viewBox="0 0 20.9131 20.9131" fill="none" xmlns="http://www.w3.org/2000/svg">
<path id="magnifying_glass" fill-rule="evenodd" clip-rule="evenodd" d="M9.165 2C13.125 2 16.335 5.21 16.335 9.165C16.335 13.125 13.125 16.335 9.165 16.335C5.21 16.335 2 13.125 2 9.165C2 5.21 5.21 2 9.165 2ZM9.165 0C4.105 0 0 4.105 0 9.165C0 14.23 4.105 18.335 9.165 18.335C11.34 18.335 13.33 17.58 14.905 16.32L19.3564 20.7668C19.5517 20.9619 19.8682 20.9618 20.0634 20.7666L20.7666 20.0634C20.9618 19.8682 20.9619 19.5517 20.7668 19.3564L16.32 14.905C17.58 13.33 18.335 11.34 18.335 9.165C18.335 4.105 14.23 0 9.165 0Z" fill="var(--fill-0, #F6F6F6)"/>
</svg>
