<svg preserveAspectRatio="none" width="100%" height="100%" overflow="visible" style="display: block;" viewBox="0 0 18.3334 16.4815" fill="none" xmlns="http://www.w3.org/2000/svg">
<g id="speaker_x_mark_fill">
<path d="M0 6.09183V10.7446C0 11.435 0.559644 11.9946 1.25 11.9946H3.00102C3.2318 11.9946 3.45224 12.0903 3.60983 12.2589L7.30785 16.2155C7.82412 16.7679 8.75 16.4026 8.75 15.6465V0.835004C8.75 0.0624727 7.78983 -0.294228 7.28546 0.290928L3.61212 4.55257C3.45382 4.73623 3.22338 4.84183 2.98091 4.84183H1.25C0.559644 4.84183 0 5.40147 0 6.09183Z" fill="var(--fill-0, #F0F0F0)"/>
<path d="M10.9554 5.72444L13.4049 8.17389L10.9554 10.6233C10.7927 10.7861 10.7927 11.0499 10.9554 11.2126L11.5447 11.8019C11.7074 11.9646 11.9712 11.9646 12.1339 11.8019L14.5834 9.3524L17.0328 11.8019C17.1956 11.9646 17.4594 11.9646 17.6221 11.8019L18.2114 11.2126C18.3741 11.0499 18.3741 10.7861 18.2114 10.6233L15.7619 8.17389L18.2114 5.72444C18.3741 5.56172 18.3741 5.2979 18.2114 5.13519L17.6221 4.54593C17.4594 4.38321 17.1956 4.38321 17.0328 4.54593L14.5834 6.99538L12.1339 4.54593C11.9712 4.38321 11.7074 4.38321 11.5447 4.54593L10.9554 5.13519C10.7927 5.2979 10.7927 5.56172 10.9554 5.72444Z" fill="var(--fill-0, #F0F0F0)"/>
</g>
</svg>
