<svg preserveAspectRatio="none" width="100%" height="100%" overflow="visible" style="display: block;" viewBox="0 0 20.0772 20.614" fill="none" xmlns="http://www.w3.org/2000/svg">
<path id="Tint" d="M18.3731 0C19.2918 0 20.0375 0.743426 20.04 1.66211L20.0772 15.6621C20.0796 16.5843 19.3324 17.333 18.4102 17.333H13.5117L11.3281 20.0029C10.6612 20.8176 9.41482 20.8178 8.74805 20.0029L6.56446 17.333H1.66602C0.743986 17.3328 -0.00242146 16.5842 5.90372e-06 15.6621L0.0361387 1.66211C0.0386486 0.743456 0.784459 4.12706e-05 1.70313 0H18.3731ZM2.00098 15.333H7.51172L10.0381 18.4209L12.5645 15.333H18.0762L18.041 2H2.03614L2.00098 15.333ZM13.3711 8C13.7393 8 14.0381 8.2988 14.0381 8.66699V9.33301C14.0381 9.7012 13.7393 10 13.3711 10H6.70508C6.33689 10 6.03809 9.7012 6.03809 9.33301V8.66699C6.03809 8.2988 6.33689 8 6.70508 8H13.3711Z" fill="var(--fill-0, white)" fill-opacity="0.6"/>
</svg>
