<svg preserveAspectRatio="none" width="100%" height="100%" overflow="visible" style="display: block;" viewBox="0 0 17.5178 20.3979" fill="none" xmlns="http://www.w3.org/2000/svg">
<path id="Tint" d="M8.7589 12.666C12.9883 12.666 16.5352 15.5831 17.5001 19.5146C17.5878 19.8722 17.3397 20.2174 16.9767 20.2783L16.3195 20.3887C15.9565 20.4495 15.6162 20.203 15.5206 19.8477C14.7201 16.8638 11.9951 14.666 8.7589 14.666C5.52271 14.666 2.79772 16.8638 1.99719 19.8477C1.90163 20.203 1.56126 20.4495 1.19836 20.3887L0.541131 20.2783C0.178066 20.2174 -0.0699651 19.8722 0.0176935 19.5146C0.982651 15.5831 4.52946 12.666 8.7589 12.666ZM8.7589 0C11.8884 0 14.4257 2.53661 14.4259 5.66602C14.4259 8.79563 11.8885 11.333 8.7589 11.333C5.62929 11.333 3.09191 8.79563 3.09191 5.66602C3.09215 2.53661 5.62944 4.26426e-06 8.7589 0ZM8.7589 2C6.73401 2 5.09215 3.64118 5.09191 5.66602C5.09191 7.69106 6.73386 9.333 8.7589 9.33301C10.7839 9.33301 12.4259 7.69106 12.4259 5.66602C12.4257 3.64117 10.7838 2 8.7589 2Z" fill="var(--fill-0, white)" fill-opacity="0.6"/>
</svg>
