<svg preserveAspectRatio="none" width="100%" height="100%" overflow="visible" style="display: block;" viewBox="0 0 23.7369 18.3966" fill="none" xmlns="http://www.w3.org/2000/svg">
<path id="Tint" d="M7.53606 11.5869C11.1686 11.587 14.1975 14.1195 15.0536 17.5186C15.1436 17.8756 14.8945 18.2196 14.5312 18.2793L13.8739 18.3877C13.5106 18.4474 13.171 18.1991 13.0712 17.8447C12.3755 15.3745 10.1491 13.587 7.53606 13.5869C4.923 13.5869 2.6966 15.3745 2.0009 17.8447C1.90112 18.1991 1.56148 18.4474 1.19817 18.3877L0.539963 18.2793C0.176892 18.2193 -0.0714019 17.8755 0.0184786 17.5186C0.8746 14.1195 3.90344 11.5869 7.53606 11.5869ZM17.5361 12.6914C20.5063 12.6914 22.9759 14.7543 23.7167 17.5215C23.8116 17.877 23.5614 18.2211 23.1982 18.2803L22.54 18.3877C22.1767 18.4466 21.8385 18.1969 21.7284 17.8457C21.1498 16.0002 19.4758 14.6914 17.5361 14.6914C17.0326 14.6914 16.5495 14.7787 16.0995 14.9395C15.7528 15.0634 15.3488 14.9494 15.1728 14.626L14.8534 14.041C14.6775 13.7176 14.7965 13.3089 15.1366 13.168C15.878 12.8609 16.6884 12.6914 17.5361 12.6914ZM17.5361 4C19.5611 4.00006 21.203 5.64198 21.203 7.66699C21.203 9.692 19.5611 11.3339 17.5361 11.334C15.511 11.334 13.8691 9.69204 13.8691 7.66699C13.8691 5.64195 15.511 4 17.5361 4ZM7.53606 0C10.2849 5.7481e-05 12.4794 2.26828 12.4794 5.02344C12.4794 7.77854 10.2849 10.0458 7.53606 10.0459C4.78719 10.0459 2.59276 7.77857 2.5927 5.02344C2.5927 2.26825 4.78715 0 7.53606 0ZM17.5361 6C16.6156 6 15.8691 6.74652 15.8691 7.66699C15.8691 8.58747 16.6156 9.33398 17.5361 9.33398C18.4565 9.33393 19.203 8.58743 19.203 7.66699C19.203 6.74655 18.4565 6.00006 17.5361 6ZM7.53606 2C5.9292 2 4.5927 3.33496 4.5927 5.02344C4.59276 6.71186 5.92923 8.0459 7.53606 8.0459C9.14283 8.04584 10.4794 6.71182 10.4794 5.02344C10.4794 3.335 9.14287 2.00006 7.53606 2Z" fill="var(--fill-0, white)" fill-opacity="0.6"/>
</svg>
