<svg preserveAspectRatio="none" width="100%" height="100%" overflow="visible" style="display: block;" viewBox="0 0 23.4674 21.0001" fill="none" xmlns="http://www.w3.org/2000/svg">
<path id="Tint" d="M11.0994 0.226676C11.468 -0.07556 11.9993 -0.0755576 12.368 0.226676L23.1014 9.02648C23.4281 9.29433 23.5512 9.73902 23.409 10.1368C23.2668 10.5346 22.89 10.7998 22.4676 10.7999H20.9129L20.1189 19.4855C20.0404 20.3435 19.3204 21.0001 18.4588 21.0001H13.4002C13.0322 20.9999 12.7342 20.7012 12.7342 20.3331V13.8771C12.7342 13.5089 12.4354 13.2101 12.0672 13.2101H11.4002C11.0322 13.2103 10.7342 13.509 10.7342 13.8771V20.3331C10.7342 20.7013 10.4354 21.0001 10.0672 21.0001H5.00956C4.14794 21.0001 3.42793 20.3435 3.3494 19.4855L2.55448 10.7999H0.999792C0.577501 10.7997 0.200567 10.5345 0.0583856 10.1368C-0.0837723 9.73904 0.0393259 9.29432 0.366003 9.02648L11.0994 0.226676Z" fill="white"/>
</svg>
