<svg preserveAspectRatio="none" width="100%" height="100%" overflow="visible" style="display: block;" viewBox="0 0 18.3333 18.3333" fill="none" xmlns="http://www.w3.org/2000/svg">
<g id="Union">
<path d="M11.9263 11.1174C12.4733 10.6102 12.7596 10.8459 13.0359 11.2138C13.3122 11.5817 13.6191 11.9306 12.9277 12.45C11.979 13.1623 10.8924 13.6251 9.7054 13.7528C8.51845 13.8806 7.35819 13.6598 6.2797 13.1657C5.55675 12.8811 5.6463 12.5476 5.86955 12.0605C6.0613 11.6423 6.22331 11.2144 6.97428 11.6504C7.80827 12.0325 8.66786 12.1883 9.52677 12.0959C10.3858 12.0035 11.1926 11.6682 11.9263 11.1174Z" fill="var(--fill-0, white)" fill-opacity="0.88"/>
<path d="M5.72388 5.74788C5.97436 5.72093 6.09959 5.70746 6.20443 5.72998C6.41081 5.77437 6.58426 5.91375 6.67155 6.10596C6.71586 6.20361 6.72922 6.32907 6.75619 6.57959L6.95679 8.4436C6.98376 8.69422 6.99725 8.81969 6.97469 8.92456C6.9303 9.13089 6.79087 9.30399 6.59871 9.39128C6.50105 9.43563 6.3757 9.44935 6.12508 9.47632C5.87446 9.50329 5.74899 9.51678 5.64412 9.49422C5.43779 9.44981 5.26468 9.31002 5.17741 9.11784C5.13309 9.02019 5.11974 8.89474 5.09277 8.64421L4.89217 6.78019C4.8652 6.52957 4.85171 6.4041 4.87427 6.29924C4.91868 6.09291 5.05808 5.91979 5.25024 5.83252C5.34791 5.78818 5.47329 5.77485 5.72388 5.74788Z" fill="var(--fill-0, white)" fill-opacity="0.88"/>
<path d="M11.5857 5.09277C11.8744 4.73438 12.1713 4.4405 12.7576 4.96663C13.3325 5.48261 13.2438 5.73567 12.8833 6.13851L12.1875 7.00236L13.0514 7.69816C13.6398 8.19364 13.4621 8.50838 13.1775 8.87004C12.8407 9.29797 12.5357 9.40209 12.006 8.99618L10.4932 7.7771C10.1348 7.48836 10.0783 6.96402 10.367 6.60563L11.5857 5.09277Z" fill="var(--fill-0, white)" fill-opacity="0.88"/>
<path fill-rule="evenodd" clip-rule="evenodd" d="M9.16667 0C14.2293 0 18.3333 4.10407 18.3333 9.16667C18.3333 14.2293 14.2293 18.3333 9.16667 18.3333C4.10407 18.3333 0 14.2293 0 9.16667C1.33145e-05 4.10408 4.10408 1.84698e-05 9.16667 0ZM9.16667 1.66667C5.02455 1.66669 1.66668 5.02455 1.66667 9.16667C1.66667 13.3088 5.02455 16.6666 9.16667 16.6667C13.3088 16.6667 16.6667 13.3088 16.6667 9.16667C16.6667 5.02454 13.3088 1.66667 9.16667 1.66667Z" fill="var(--fill-0, white)" fill-opacity="0.88"/>
</g>
</svg>
