<svg preserveAspectRatio="none" width="100%" height="100%" overflow="visible" style="display: block;" viewBox="0 0 13.75 19.9512" fill="none" xmlns="http://www.w3.org/2000/svg">
<path id="Subtract" d="M8.9375 10.541C10.33 10.541 11.5461 10.6344 12.5967 10.8379C12.035 11.2898 11.5626 11.8488 11.2139 12.4854C10.5534 12.4138 9.79916 12.375 8.9375 12.375C5.76647 12.375 4.05008 12.8904 3.11133 13.6943C2.26476 14.4197 1.87414 15.54 1.83691 17.3516C1.86799 17.366 1.90232 17.3851 1.94336 17.4014C2.28662 17.5372 2.83455 17.669 3.56348 17.7812C5.00481 18.0031 6.95942 18.1182 8.9375 18.1182C9.77092 18.1182 10.6001 18.0959 11.3887 18.0557C11.825 18.7469 12.4104 19.3337 13.1006 19.7715C11.8217 19.8907 10.3736 19.9512 8.9375 19.9512C6.90591 19.9512 4.85037 19.8349 3.28418 19.5938C2.5094 19.4745 1.80256 19.3169 1.26855 19.1055C1.00531 19.0012 0.726932 18.8615 0.499023 18.665C0.268423 18.4662 0 18.1263 0 17.6455C4.11739e-05 15.4875 0.408569 13.5956 1.91895 12.3018C3.38229 11.0485 5.67629 10.541 8.9375 10.541ZM8.9375 0C11.5954 0 13.75 2.15463 13.75 4.8125C13.75 7.47037 11.5954 9.625 8.9375 9.625C6.27963 9.625 4.125 7.47037 4.125 4.8125C4.125 2.15463 6.27963 2.57706e-07 8.9375 0ZM8.9375 1.83301C7.29215 1.83301 5.95801 3.16715 5.95801 4.8125C5.95801 6.45785 7.29215 7.79199 8.9375 7.79199C10.5828 7.79199 11.917 6.45785 11.917 4.8125C11.917 3.16715 10.5828 1.83301 8.9375 1.83301Z" fill="var(--fill-0, black)"/>
</svg>
