<svg preserveAspectRatio="none" width="100%" height="100%" overflow="visible" style="display: block;" viewBox="0 0 14.9745 13.1518" fill="none" xmlns="http://www.w3.org/2000/svg">
<g id="bubble_announcement">
<path d="M8.66652 5.46173C9.05484 5.46173 9.36964 5.042 9.36964 4.52423C9.36964 4.00646 9.05484 3.58673 8.66652 3.58673C8.27819 3.58673 7.96339 4.00646 7.96339 4.52423C7.96339 5.042 8.27819 5.46173 8.66652 5.46173Z" fill="var(--fill-0, #FE2C55)"/>
<path d="M6.16652 5.46173C6.55484 5.46173 6.86964 5.042 6.86964 4.52423C6.86964 4.00646 6.55484 3.58673 6.16652 3.58673C5.77819 3.58673 5.46339 4.00646 5.46339 4.52423C5.46339 5.042 5.77819 5.46173 6.16652 5.46173Z" fill="var(--fill-0, #FE2C55)"/>
<path d="M8.08336 6.56706C7.76084 6.94054 7.06983 6.94054 6.74733 6.56707L6.58394 6.37785C6.47114 6.24722 6.27381 6.23277 6.14318 6.34557L5.76474 6.67235C5.63412 6.78515 5.61966 6.98249 5.73246 7.11311L5.89585 7.30233C6.6671 8.19549 8.1636 8.19542 8.93482 7.30234L9.09822 7.11313C9.21102 6.98251 9.19657 6.78517 9.06595 6.67237L8.68752 6.34557C8.5569 6.23277 8.35956 6.24722 8.24676 6.37784L8.08336 6.56706Z" fill="var(--fill-0, #FE2C55)"/>
<path fill-rule="evenodd" clip-rule="evenodd" d="M10.9086 1.51731C9.79895 0.509364 8.21927 0 6.41402 0C4.93666 0 3.34635 0.43339 2.11069 1.39811C0.855476 2.37809 0 3.88306 0 5.92246C0 8.18379 1.31123 9.85624 2.7125 10.9955C4.11562 12.1362 5.69003 12.8123 6.41808 13.0893C7.0491 13.3293 7.66486 12.8434 7.66486 12.2214V10.7344C7.93047 10.6796 8.2723 10.5944 8.65126 10.4639V10.9451C8.65126 11.597 9.32673 12.0919 9.96952 11.7827C10.6002 11.4793 11.8204 10.8314 12.8922 9.89429C13.9486 8.97056 14.9745 7.66496 14.9745 6.04224C14.9745 5.11429 14.748 4.04096 14.106 3.18311C13.4773 2.34307 12.4932 1.76944 11.1111 1.71215C11.0458 1.64549 10.9783 1.58054 10.9086 1.51731ZM10.0682 2.44259C10.8772 3.17745 11.3367 4.26118 11.2454 5.69242C11.1381 7.37506 10.1813 8.32087 9.17039 8.87554C8.13824 9.44185 7.09228 9.56917 6.98647 9.58062C6.64875 9.61716 6.41486 9.90306 6.41486 10.2177V11.7405C5.66261 11.4208 4.52234 10.8559 3.50102 10.0255C2.24524 9.00461 1.25 7.65245 1.25 5.92246C1.25 4.27392 1.92343 3.13016 2.87992 2.38339C3.85596 1.62137 5.16017 1.25 6.41402 1.25C7.99647 1.25 9.24628 1.69604 10.0682 2.44259ZM12.0809 3.15894C12.4097 3.92401 12.5547 4.80355 12.4929 5.77197C12.3555 7.92672 11.1255 9.189 9.90126 9.89835V10.4163C10.51 10.0925 11.3363 9.59428 12.0694 8.95328C13.0338 8.10998 13.7245 7.11992 13.7245 6.04224C13.7245 5.29092 13.5372 4.50935 13.1052 3.93211C12.8663 3.61285 12.5377 3.33533 12.0809 3.15894Z" fill="var(--fill-0, #FE2C55)"/>
</g>
</svg>
