<svg preserveAspectRatio="none" width="100%" height="100%" overflow="visible" style="display: block;" viewBox="0 0 13.2422 13.125" fill="none" xmlns="http://www.w3.org/2000/svg">
<path id="bag" fill-rule="evenodd" clip-rule="evenodd" d="M9.78709 4.0625L9.46088 2.34994C9.20117 0.98646 8.00908 0 6.62109 0C5.23309 0 4.041 0.98646 3.78129 2.34994L3.45509 4.0625H2.61459C1.62461 4.0625 1.12963 4.0625 0.772908 4.26314C0.459741 4.43928 0.21685 4.71798 0.0851491 5.05227C-0.0648678 5.43306 0.00276596 5.92341 0.138033 6.9041L0.638836 10.5349C0.765458 11.4529 0.828768 11.9119 1.04881 12.2574C1.24272 12.5618 1.52035 12.8037 1.84838 12.9542C2.22065 13.125 2.684 13.125 3.6107 13.125H9.63148C10.5582 13.125 11.0215 13.125 11.3938 12.9542C11.7218 12.8037 11.9995 12.5618 12.1934 12.2574C12.4134 11.9119 12.4767 11.4529 12.6033 10.5349L13.1041 6.90409C13.2394 5.9234 13.307 5.43306 13.157 5.05227C13.0253 4.71798 12.7824 4.43928 12.4693 4.26314C12.1126 4.0625 11.6176 4.0625 10.6276 4.0625H9.78709ZM6.62109 1.25C5.83326 1.25 5.15663 1.80992 5.00921 2.58383L4.72756 4.0625H8.51461L8.23296 2.58383C8.08555 1.80992 7.40892 1.25 6.62109 1.25ZM8.75271 5.3125L9.00194 6.62097C9.03002 6.76836 9.15888 6.875 9.30892 6.875H9.94516C10.1412 6.875 10.2888 6.6966 10.2521 6.50403L10.0252 5.3125H10.6276C11.1446 5.3125 11.4528 5.31358 11.679 5.333C11.794 5.34287 11.8498 5.35522 11.8697 5.36052C11.9216 5.39318 11.9628 5.44038 11.988 5.49624C11.9906 5.51671 11.9952 5.57368 11.9892 5.68899C11.9776 5.91566 11.9365 6.22117 11.8659 6.7333L11.3651 10.3641C11.2991 10.8421 11.2584 11.1308 11.2118 11.3458C11.1902 11.4454 11.1721 11.5051 11.1589 11.5412C11.1471 11.5733 11.14 11.5843 11.1391 11.5857C11.0745 11.6872 10.9819 11.7679 10.8726 11.8181C10.8715 11.8185 10.8599 11.8241 10.8257 11.8316C10.7881 11.8398 10.7265 11.8495 10.6249 11.8573C10.4056 11.8741 10.1139 11.875 9.63148 11.875H3.6107C3.12823 11.875 2.8366 11.8741 2.61726 11.8573C2.51568 11.8495 2.45409 11.8398 2.41649 11.8316C2.38308 11.8243 2.37116 11.8188 2.36969 11.8181C2.26035 11.7679 2.16772 11.6873 2.10308 11.5858C2.10221 11.5844 2.09507 11.5733 2.08329 11.5412C2.07004 11.5051 2.05197 11.4454 2.03037 11.3458C1.98373 11.1308 1.94304 10.8421 1.87711 10.3641L1.37631 6.7333C1.30567 6.22117 1.26462 5.91566 1.25296 5.68899C1.24702 5.57368 1.25163 5.5167 1.25416 5.49624C1.27942 5.44038 1.32056 5.39318 1.37244 5.36052C1.39236 5.35522 1.44818 5.34287 1.56322 5.333C1.78935 5.31358 2.09761 5.3125 2.61459 5.3125H3.21699L2.99004 6.50403C2.95336 6.6966 3.10098 6.875 3.29702 6.875H3.93325C4.0833 6.875 4.21216 6.76836 4.24023 6.62097L4.48947 5.3125H8.75271Z" fill="var(--fill-0, #FE2C55)"/>
</svg>
