<svg preserveAspectRatio="none" width="100%" height="100%" overflow="visible" style="display: block;" viewBox="0 0 14.6667 18.2425" fill="none" xmlns="http://www.w3.org/2000/svg">
<path id="bookmark" d="M12.375 1.83333H2.29167C2.03854 1.83333 1.83333 2.03854 1.83333 2.29167V15.3982L5.88823 12.1036C6.73019 11.4195 7.93648 11.4195 8.77844 12.1036L12.8333 15.3982V2.29167C12.8333 2.03854 12.6281 1.83333 12.375 1.83333ZM2.29167 0H12.375C13.6407 0 14.6667 1.02601 14.6667 2.29167V17.3241C14.6667 18.096 13.771 18.5223 13.172 18.0355L7.62235 13.5265C7.45396 13.3897 7.2127 13.3897 7.04431 13.5265L1.49471 18.0355C0.895654 18.5223 0 18.096 0 17.3241V2.29167C0 1.02601 1.02601 0 2.29167 0Z" fill="var(--fill-0, black)" fill-opacity="0.48"/>
</svg>
