<svg preserveAspectRatio="none" width="100%" height="100%" overflow="visible" style="display: block;" viewBox="0 0 12 12" fill="none" xmlns="http://www.w3.org/2000/svg">
<g id="Icon/Shopping_Cart_LTR" clip-path="url(#clip0_0_687)">
<path id="Union" d="M4.08984 9.7002C4.67665 9.7002 5.15234 10.1759 5.15234 10.7627C5.15221 11.3494 4.67656 11.8252 4.08984 11.8252C3.50312 11.8252 3.02748 11.3494 3.02734 10.7627C3.02734 10.1759 3.50304 9.7002 4.08984 9.7002ZM9.39453 9.7002C9.98133 9.7002 10.457 10.1759 10.457 10.7627C10.4569 11.3494 9.98125 11.8252 9.39453 11.8252C8.80781 11.8252 8.33216 11.3494 8.33203 10.7627C8.33203 10.1759 8.80773 9.7002 9.39453 9.7002ZM1.36719 0.375C1.62701 0.377438 1.92384 0.395821 2.19434 0.507812C2.47789 0.625287 2.72517 0.816137 2.91211 1.05957C3.14962 1.36903 3.24037 1.76544 3.31934 2.05957L3.46094 2.58887H9.96582C10.1514 2.58887 10.329 2.58873 10.4756 2.60156C10.6271 2.61484 10.8102 2.64671 10.9873 2.75098C11.1976 2.87486 11.3635 3.06072 11.4619 3.28223L11.5 3.37891L11.5371 3.52246C11.5626 3.66379 11.5552 3.7969 11.542 3.91016C11.525 4.05627 11.4886 4.23042 11.4512 4.41211L10.9541 6.8252C10.9012 7.08204 10.8557 7.30624 10.8037 7.48926C10.7496 7.6794 10.6779 7.86543 10.5557 8.03906C10.3709 8.30129 10.1174 8.50776 9.82324 8.63574C9.62846 8.72045 9.43254 8.75297 9.23535 8.76758C9.04551 8.78163 8.81711 8.78125 8.55469 8.78125H5.10156C4.84506 8.78125 4.62158 8.78117 4.43555 8.76758C4.24216 8.75344 4.05005 8.72234 3.8584 8.64062C3.56842 8.51692 3.31669 8.31717 3.13086 8.0625C3.00826 7.89438 2.93521 7.71429 2.87793 7.5293C2.82279 7.35112 2.77261 7.1327 2.71484 6.88281L1.96094 3.62207C1.92023 3.55413 1.88779 3.47968 1.86621 3.39941L1.62891 2.51367C1.57594 2.31642 1.547 2.21229 1.52148 2.13867C1.52055 2.13598 1.51942 2.13327 1.51855 2.13086C1.51645 2.13069 1.51402 2.13102 1.51172 2.13086C1.43401 2.12531 1.32631 2.125 1.12207 2.125H0.835938C0.473918 2.125 0.162386 1.90527 0.0292969 1.5918C-0.0406507 1.49567 -0.0829554 1.37806 -0.0830078 1.25C-0.0830078 1.1217 -0.0408364 1.00347 0.0292969 0.907227C0.162483 0.593974 0.474077 0.375 0.835938 0.375H1.36719Z" fill="url(#paint0_linear_0_687)"/>
</g>
<defs>
<linearGradient id="paint0_linear_0_687" x1="9.46986" y1="12.2542" x2="9.46986" y2="0.312023" gradientUnits="userSpaceOnUse">
<stop stop-color="#F5A0FF"/>
<stop offset="0.716346" stop-color="#FE2C55"/>
</linearGradient>
<clipPath id="clip0_0_687">
<rect width="12" height="12" fill="white"/>
</clipPath>
</defs>
</svg>
