<svg preserveAspectRatio="none" width="100%" height="100%" overflow="visible" style="display: block;" viewBox="0 0 46 28.7752" fill="none" xmlns="http://www.w3.org/2000/svg">
<g id="Group 2053139788">
<path id="Rectangle 240648237" d="M45.8487 17.967C46.0504 15.2511 46.0504 13.5241 45.8487 10.8082C44.9707 -1.00863 31.3588 0.165053 23 0.165043V28.6102C31.3588 28.6102 44.9707 29.7838 45.8487 17.967Z" fill="var(--fill-0, #FA2D6C)"/>
<path id="Rectangle 240648238" d="M0.15134 17.967C-0.0504465 15.2511 -0.0504465 13.5241 0.15134 10.8082C1.0293 -1.00863 14.6412 0.165053 23 0.165043V28.6102C14.6412 28.6102 1.0293 29.7838 0.15134 17.967Z" fill="var(--fill-0, #20D5EC)"/>
<path id="Rectangle 240648235" d="M4.45857 8.5685C4.88916 2.63749 9.95034 0.673139 14.9707 0.298872C20.316 -0.0996241 25.6836 -0.0996241 31.029 0.298872C36.0493 0.673139 41.1105 2.63749 41.541 8.5685C41.8465 12.7757 41.8465 15.9995 41.541 20.2067C41.1105 26.1377 36.0493 28.1021 31.029 28.4763C25.6836 28.8748 20.316 28.8748 14.9707 28.4763C9.95033 28.1021 4.88916 26.1377 4.45857 20.2067C4.15313 15.9995 4.15313 12.7757 4.45857 8.5685Z" fill="var(--fill-0, black)"/>
</g>
</svg>
