<svg preserveAspectRatio="none" width="100%" height="100%" overflow="visible" style="display: block;" viewBox="0 0 11.2062 9.91667" fill="none" xmlns="http://www.w3.org/2000/svg">
<g id="draft">
<path d="M1.19968 0.291667C1.19968 0.130584 1.33027 0 1.49135 0H9.7149C9.87598 0 10.0066 0.130584 10.0066 0.291667V1.06324C10.0066 1.22432 9.87598 1.3549 9.7149 1.3549H1.49135C1.33027 1.3549 1.19968 1.22432 1.19968 1.06324V0.291667Z" fill="var(--fill-0, #F6F6F6)"/>
<path d="M0.00590447 3.55042C-0.0627809 2.86362 0.47655 2.26766 1.16678 2.26766H10.0394C10.7296 2.26766 11.269 2.86362 11.2003 3.55042L10.6395 8.8661C10.5799 9.46249 10.078 9.91667 9.47863 9.91667H1.72756C1.12818 9.91667 0.626326 9.4625 0.566681 8.8661L0.00590447 3.55042ZM1.16678 3.43432L1.72756 8.75L9.47863 8.75L10.0394 3.43432L1.16678 3.43432Z" fill="var(--fill-0, #F6F6F6)"/>
</g>
</svg>
