<svg preserveAspectRatio="none" width="100%" height="100%" overflow="visible" style="display: block;" viewBox="0 0 19.9482 20.0565" fill="none" xmlns="http://www.w3.org/2000/svg">
<path id="Union" d="M15.8428 2.0853C18.2275 2.38395 19.9478 4.95572 19.9482 7.86753C19.9484 9.28157 19.7792 10.1469 19.4404 11.0736C19.281 11.5096 19.0828 11.9614 18.8701 12.4603C18.6538 12.9677 18.4074 13.5582 18.1289 14.3128C17.9886 14.6931 17.8575 15.0636 17.7295 15.4261C17.6024 15.7863 17.4773 16.1413 17.3516 16.4779C17.1028 17.1438 16.8342 17.789 16.5039 18.3343C16.1716 18.8828 15.7414 19.3899 15.1416 19.7123C14.526 20.0429 13.8287 20.127 13.0645 20.0003C12.0473 19.8316 11.3402 19.2869 10.957 18.4789C10.6085 17.7438 10.5692 16.876 10.6191 16.0843C10.6701 15.277 10.8261 14.4124 10.9697 13.6302C11.1185 12.8201 11.2512 12.1079 11.2939 11.5101C11.3837 10.2529 11.3325 9.5322 11.2832 8.89585C11.2315 8.22795 11.1766 7.59923 11.2988 6.62143C11.4323 5.55398 11.952 4.3992 12.6934 3.52866C13.4239 2.67105 14.5277 1.92086 15.8428 2.0853ZM12.6943 14.389C12.5799 15.0307 12.4835 15.6412 12.4482 16.1996C12.4043 16.8968 12.4671 17.3853 12.6133 17.6937C12.7248 17.9288 12.9061 18.1157 13.3643 18.1917C13.8092 18.2655 14.081 18.2003 14.2734 18.097C14.4816 17.9852 14.7 17.773 14.9355 17.3841C15.1731 16.9918 15.3934 16.4798 15.6338 15.8363C15.7229 15.5977 15.811 15.3466 15.9043 15.0833L12.6943 14.389ZM4.10547 0.0227988C5.42053 -0.141646 6.52435 0.608546 7.25488 1.46616C7.99626 2.3367 8.51595 3.49148 8.64941 4.55893C8.77164 5.53673 8.71673 6.16545 8.66504 6.83335C8.61579 7.4697 8.56453 8.19043 8.6543 9.4476C8.69702 10.0454 8.82978 10.7576 8.97852 11.5677C9.12211 12.3499 9.27813 13.2145 9.3291 14.0218C9.37904 14.8135 9.33973 15.6813 8.99121 16.4164C8.60802 17.2244 7.9009 17.7691 6.88379 17.9378C6.11954 18.0645 5.42222 17.9804 4.80664 17.6498C4.20687 17.3274 3.77662 16.8203 3.44434 16.2718C3.11408 15.7265 2.84545 15.0813 2.59668 14.4154C2.47096 14.0788 2.34586 13.7238 2.21875 13.3636C2.09079 13.0011 1.95967 12.6306 1.81934 12.2503C1.54083 11.4957 1.29444 10.9052 1.07813 10.3978C0.865441 9.8989 0.667228 9.44706 0.507813 9.01108C0.168995 8.08437 -0.000122833 7.21907 6.69354e-08 5.80503C0.000438732 2.89322 1.72073 0.321453 4.10547 0.0227988ZM3.83105 12.429C3.86994 12.539 3.90975 12.647 3.94727 12.7533C4.07536 13.1162 4.19557 13.4555 4.31445 13.7738C4.55486 14.4173 4.7751 14.9293 5.0127 15.3216C5.24827 15.7105 5.46665 15.9227 5.6748 16.0345C5.86727 16.1378 6.139 16.203 6.58398 16.1292C7.04215 16.0532 7.22341 15.8663 7.33496 15.6312C7.48119 15.3228 7.54398 14.8343 7.5 14.1371C7.45698 13.4559 7.32237 12.6972 7.17578 11.8988C7.16446 11.8371 7.15405 11.7746 7.14258 11.7123L3.83105 12.429ZM15.6152 3.90463C15.1706 3.84913 14.6232 4.08982 14.0889 4.71713C13.5656 5.33162 13.2047 6.15689 13.1182 6.84897C13.0205 7.63069 13.0599 8.10235 13.1104 8.75424C13.1633 9.43781 13.2218 10.2583 13.123 11.641C13.0987 11.982 13.049 12.3462 12.9902 12.7171L16.4844 13.474C16.747 12.775 16.9814 12.2158 17.1836 11.7415C17.4086 11.2136 17.5796 10.8217 17.7178 10.4437C17.9742 9.7423 18.1143 9.09392 18.1143 7.8685C18.114 5.5009 16.7499 4.04698 15.6152 3.90463ZM4.33301 1.84213C3.19835 1.98448 1.83422 3.4384 1.83398 5.806C1.83391 7.03142 1.97403 7.6798 2.23047 8.3812C2.36868 8.75919 2.5396 9.15115 2.76465 9.67905C2.90653 10.0119 3.06304 10.3871 3.23535 10.8226L6.86914 10.0355C6.85065 9.87965 6.8358 9.72683 6.8252 9.57846C6.72647 8.19576 6.78499 7.3753 6.83789 6.69174C6.88834 6.03985 6.92779 5.56819 6.83008 4.78647C6.74355 4.09439 6.38268 3.26912 5.85938 2.65463C5.32501 2.02732 4.77764 1.78663 4.33301 1.84213Z" fill="var(--fill-0, black)"/>
</svg>
