<svg preserveAspectRatio="none" width="100%" height="100%" overflow="visible" style="display: block;" viewBox="0 0 12.8333 9.91667" fill="none" xmlns="http://www.w3.org/2000/svg">
<path id="envelope" fill-rule="evenodd" clip-rule="evenodd" d="M0 1.86667C0 1.21327 0 0.886575 0.127159 0.637011C0.239011 0.417489 0.417489 0.239011 0.637011 0.127159C0.886575 0 1.21327 0 1.86667 0H10.9667C11.6201 0 11.9468 0 12.1963 0.127159C12.4158 0.239011 12.5943 0.417489 12.7062 0.637011C12.8333 0.886575 12.8333 1.21327 12.8333 1.86667V8.05C12.8333 8.7034 12.8333 9.03009 12.7062 9.27966C12.5943 9.49918 12.4158 9.67766 12.1963 9.78951C11.9468 9.91667 11.6201 9.91667 10.9667 9.91667H1.86667C1.21327 9.91667 0.886575 9.91667 0.637011 9.78951C0.417489 9.67766 0.239011 9.49918 0.127159 9.27966C0 9.03009 0 8.7034 0 8.05V1.86667ZM1.86667 1.16667H10.9667C11.3126 1.16667 11.5019 1.16757 11.6379 1.17869L11.6533 1.18002L11.6546 1.19541C11.6658 1.33142 11.6667 1.52072 11.6667 1.86667V3.09978L6.41667 6.03978L1.16667 3.09978V1.86667C1.16667 1.52072 1.16757 1.33142 1.17869 1.19541L1.18002 1.18002L1.19541 1.17869C1.33142 1.16757 1.52072 1.16667 1.86667 1.16667ZM1.16667 4.43692V8.05C1.16667 8.39595 1.16757 8.58524 1.17869 8.72126L1.18002 8.73664L1.19541 8.73798C1.33142 8.74909 1.52072 8.75 1.86667 8.75H10.9667C11.3126 8.75 11.5019 8.74909 11.6379 8.73798L11.6533 8.73664L11.6546 8.72126C11.6658 8.58524 11.6667 8.39595 11.6667 8.05V4.43692L6.9867 7.0577C6.63255 7.25603 6.20078 7.25603 5.84663 7.0577L1.16667 4.43692Z" fill="var(--fill-0, black)"/>
</svg>
