<svg preserveAspectRatio="none" width="100%" height="100%" overflow="visible" style="display: block;" viewBox="0 0 9.5957 16.7778" fill="none" xmlns="http://www.w3.org/2000/svg">
<path id="Union" d="M3.69531 8.7627C5.76708 8.7627 7.35057 9.14153 8.36426 10.252C9.35893 11.3417 9.5957 12.9179 9.5957 14.7217C9.59534 15.2646 9.28042 15.6473 8.98438 15.876C8.6946 16.0996 8.33312 16.2524 7.97754 16.3633C7.25647 16.588 6.30219 16.7183 5.2666 16.7764C4.77065 16.804 4.34551 16.4246 4.31738 15.9287C4.28959 15.4325 4.66987 15.0074 5.16602 14.9795C6.14124 14.9248 6.92689 14.8062 7.44238 14.6455C7.60492 14.5948 7.71664 14.5448 7.79004 14.5068C7.76948 12.8915 7.51576 11.9935 7.03418 11.4658C6.55044 10.936 5.63379 10.5635 3.69531 10.5635C3.19853 10.5633 2.79519 10.1598 2.79492 9.66309C2.79492 9.16611 3.19837 8.76283 3.69531 8.7627ZM3.75 0C5.82096 0.000131939 7.5 1.67901 7.5 3.75C7.49997 5.82096 5.82094 7.49987 3.75 7.5C1.67895 7.5 2.93799e-05 5.82104 0 3.75C0 1.67893 1.67893 0 3.75 0ZM3.75 1.7998C2.67304 1.7998 1.7998 2.67304 1.7998 3.75C1.79983 4.82693 2.67306 5.7002 3.75 5.7002C4.82683 5.70006 5.70017 4.82685 5.7002 3.75C5.7002 2.67313 4.82684 1.79994 3.75 1.7998Z" fill="var(--fill-0, black)"/>
</svg>
