<svg preserveAspectRatio="none" width="100%" height="100%" overflow="visible" style="display: block;" viewBox="0 0 16.9609 19.9014" fill="none" xmlns="http://www.w3.org/2000/svg">
<path id="Union" d="M8.48047 10.3779C11.5387 10.3779 13.736 10.8836 15.1445 12.168C16.5852 13.482 16.9609 15.3858 16.9609 17.5225C16.9608 18.0102 16.7049 18.366 16.4697 18.582C16.2409 18.7921 15.9627 18.9391 15.707 19.0469C15.1895 19.265 14.5133 19.4246 13.7852 19.5439C12.3103 19.7857 10.3816 19.9014 8.48047 19.9014C6.57932 19.9014 4.65063 19.7857 3.17578 19.5439C2.44768 19.4246 1.77237 19.265 1.25488 19.0469C0.999171 18.9391 0.721094 18.7921 0.492188 18.582C0.25694 18.366 0.000105197 18.0105 0 17.5225C5.57686e-05 15.3858 0.375732 13.482 1.81641 12.168C3.2249 10.8835 5.42219 10.3779 8.48047 10.3779ZM8.48047 12.3779C5.5395 12.3779 3.99592 12.887 3.16406 13.6455C2.41037 14.3329 2.04255 15.4118 2.00293 17.1904C2.01207 17.1945 2.02118 17.1999 2.03125 17.2041C2.33184 17.3308 2.82487 17.4598 3.49902 17.5703C4.82933 17.7884 6.64145 17.9014 8.48047 17.9014C10.3195 17.9014 12.1316 17.7884 13.4619 17.5703C14.136 17.4598 14.6291 17.3308 14.9297 17.2041C14.9393 17.2 14.9482 17.1943 14.957 17.1904C14.9174 15.4118 14.5506 14.3329 13.7969 13.6455C12.965 12.887 11.4214 12.3779 8.48047 12.3779ZM8.48047 0C11.0379 0.000235251 13.1121 2.07341 13.1123 4.63086L13.1064 4.87012C12.9822 7.31682 10.958 9.26247 8.48047 9.2627L8.24219 9.25684C5.79533 9.13259 3.84961 7.1086 3.84961 4.63086C3.84986 2.07342 5.92303 0.000254318 8.48047 0ZM8.48047 2C7.0276 2.00025 5.84986 3.17799 5.84961 4.63086C5.84961 6.08395 7.02744 7.26244 8.48047 7.2627C9.93351 7.26246 11.1123 6.08396 11.1123 4.63086C11.1121 3.17798 9.93336 2.00024 8.48047 2Z" fill="var(--fill-0, black)"/>
</svg>
