<svg preserveAspectRatio="none" width="100%" height="100%" overflow="visible" style="display: block;" viewBox="0 0 20.5 21.6048" fill="none" xmlns="http://www.w3.org/2000/svg">
<path id="Rectangle 240648202" d="M9.81055 1.06576C10.0969 0.978046 10.4031 0.978046 10.6895 1.06576C10.7955 1.09828 10.9397 1.16886 11.1982 1.37143C11.4665 1.58161 11.7915 1.87934 12.2803 2.32846L17.7539 7.35775C18.5536 8.09259 18.8217 8.34911 19.0107 8.63803C19.1923 8.9156 19.3267 9.2218 19.4082 9.5433C19.4929 9.87786 19.5 10.2487 19.5 11.3343V15.2044C19.5 16.3409 19.4996 17.1335 19.4492 17.7503C19.3998 18.3555 19.307 18.7038 19.1729 18.9671C18.8853 19.5314 18.4265 19.9901 17.8623 20.2777C17.5989 20.4119 17.2507 20.5046 16.6455 20.554C16.0287 20.6044 15.236 20.6048 14.0996 20.6048H6.40039C5.26396 20.6048 4.47129 20.6044 3.85449 20.554C3.24932 20.5046 2.90105 20.4119 2.6377 20.2777C2.07347 19.9901 1.61472 19.5314 1.32715 18.9671C1.19296 18.7038 1.10023 18.3555 1.05078 17.7503C1.00041 17.1335 1 16.3409 1 15.2044V11.3343C1 10.2487 1.00705 9.87786 1.0918 9.5433C1.17331 9.2218 1.30771 8.9156 1.48926 8.63803C1.67828 8.34911 1.94639 8.09259 2.74609 7.35775L8.21973 2.32846C8.70849 1.87934 9.03355 1.58161 9.30176 1.37143C9.5603 1.16886 9.70445 1.09828 9.81055 1.06576Z" stroke="var(--stroke-0, black)" stroke-width="2"/>
</svg>
