<svg preserveAspectRatio="none" width="100%" height="100%" overflow="visible" style="display: block;" viewBox="0 0 14.0033 14.1987" fill="none" xmlns="http://www.w3.org/2000/svg">
<path id="gear" d="M6.7691 0.291705C6.63371 0.0769579 6.38188 -0.0345617 6.13187 0.0095211L5.70419 0.0849332C5.45418 0.129016 5.25568 0.319943 5.2019 0.568044L5.09551 1.05889C5.05051 1.26654 4.90211 1.43494 4.70769 1.52062C4.29993 1.70032 3.91561 1.92341 3.56055 2.18404C3.38918 2.30983 3.16901 2.3542 2.96657 2.28932L2.4844 2.13479C2.24265 2.05731 1.97805 2.13376 1.81487 2.32823L1.53572 2.6609C1.37254 2.85537 1.3432 3.12923 1.46148 3.35385L1.69671 3.80056C1.79582 3.98878 1.79027 4.21345 1.69605 4.40416C1.50188 4.79723 1.34884 5.21425 1.24258 5.6496C1.19214 5.85627 1.05198 6.03198 0.855055 6.11246L0.38855 6.30312C0.153556 6.39916 0 6.6278 0 6.88167V7.31595C0 7.56981 0.153556 7.79845 0.38855 7.89449L0.854624 8.08498C1.0516 8.16548 1.19179 8.34127 1.24219 8.54802C1.34841 8.98373 1.50148 9.40109 1.69576 9.79446C1.78994 9.98516 1.79548 10.2098 1.69638 10.398L1.46174 10.8436C1.34346 11.0682 1.37279 11.3421 1.53597 11.5365L1.81512 11.8692C1.9783 12.0637 2.2429 12.1401 2.48465 12.0626L2.96496 11.9087C3.16747 11.8438 3.38771 11.8882 3.5591 12.0141C3.91455 12.2752 4.29936 12.4986 4.70765 12.6786C4.90208 12.7643 5.05047 12.9327 5.09548 13.1403L5.20176 13.6307C5.25553 13.8788 5.45404 14.0697 5.70404 14.1138L6.13173 14.1892C6.38173 14.2333 6.63357 14.1217 6.76895 13.907L7.0371 13.4817C7.15049 13.3018 7.34772 13.1943 7.5599 13.1806C8.01139 13.1516 8.4495 13.0734 8.86892 12.9513C9.07299 12.8919 9.29498 12.9255 9.46298 13.0557L9.85889 13.3624C10.0596 13.5179 10.3344 13.5366 10.5542 13.4097L10.9303 13.1925C11.1502 13.0656 11.2714 12.8183 11.2371 12.5668L11.1691 12.0689C11.1404 11.8584 11.2222 11.6494 11.3757 11.5025C11.6959 11.196 11.9827 10.8549 12.2302 10.4853C12.3483 10.3089 12.5398 10.1922 12.7519 10.1839L13.2541 10.1644C13.5077 10.1545 13.7302 9.99215 13.817 9.75359L13.9656 9.3455C14.0524 9.10695 13.9863 8.83958 13.7983 8.66895L13.4265 8.33148C13.2693 8.18879 13.1976 7.97628 13.2206 7.76521C13.2443 7.5466 13.2565 7.32453 13.2565 7.09961C13.2565 6.8747 13.2443 6.65263 13.2206 6.43404C13.1977 6.22297 13.2693 6.01046 13.4265 5.86777L13.798 5.53056C13.986 5.35994 14.0521 5.09257 13.9653 4.85401L13.8168 4.44592C13.7299 4.20737 13.5074 4.04504 13.2538 4.03516L12.7521 4.01563C12.54 4.00737 12.3485 3.89065 12.2304 3.71422C11.9828 3.34443 11.6959 3.00325 11.3756 2.69667C11.2221 2.54977 11.1403 2.34075 11.169 2.13024L11.237 1.63174C11.2714 1.38021 11.1501 1.13291 10.9303 1.00597L10.5542 0.788834C10.3343 0.661903 10.0595 0.680564 9.85888 0.836055L9.46229 1.14335C9.29431 1.27351 9.07235 1.30712 8.8683 1.24775C8.4492 1.12581 8.01146 1.04768 7.56035 1.01862C7.34819 1.00496 7.15098 0.897418 7.03759 0.717577L6.7691 0.291705ZM11.8815 7.09961C11.8815 9.7057 9.76886 11.8184 7.16276 11.8184C4.55667 11.8184 2.44401 9.7057 2.44401 7.09961C2.44401 4.49352 4.55667 2.38086 7.16276 2.38086C9.76886 2.38086 11.8815 4.49352 11.8815 7.09961Z" fill="var(--fill-0, black)"/>
</svg>
