<svg preserveAspectRatio="none" width="100%" height="100%" overflow="visible" style="display: block;" viewBox="0 0 17.417 15.125" fill="none" xmlns="http://www.w3.org/2000/svg">
<path id="Union" d="M16.5 13.292C17.0062 13.292 17.4168 13.7019 17.417 14.208C17.417 14.7143 17.0063 15.125 16.5 15.125H0.916992C0.410731 15.125 0 14.7143 0 14.208C0.000176577 13.7019 0.41084 13.292 0.916992 13.292H16.5ZM16.5 6.64551C17.0063 6.64551 17.417 7.05624 17.417 7.5625C17.417 8.06876 17.0063 8.47949 16.5 8.47949H0.916992C0.410731 8.47949 0 8.06876 0 7.5625C3.54343e-07 7.05624 0.410732 6.64551 0.916992 6.64551H16.5ZM16.5 0C17.0063 0 17.417 0.410731 17.417 0.916992C17.4168 1.4231 17.0062 1.83301 16.5 1.83301H0.916992C0.41084 1.83301 0.000175868 1.4231 0 0.916992C0 0.410731 0.410731 0 0.916992 0H16.5Z" fill="var(--fill-0, black)"/>
</svg>
