<svg preserveAspectRatio="none" width="100%" height="100%" overflow="visible" style="display: block;" viewBox="0 0 88 62" fill="none" xmlns="http://www.w3.org/2000/svg">
<g id="Shape" filter="url(#filter0_d_0_741)">
<mask id="path-1-inside-1_0_741" fill="white">
<path d="M50.5 40.8799C51.8806 40.8799 52.9999 42.0258 53 43.4395C53 44.8532 51.8807 46 50.5 46C49.1193 46 48 44.8532 48 43.4395C48.0001 42.0258 49.1194 40.8799 50.5 40.8799ZM62 34C57.5455 34 56.9657 39.1191 53.0908 39.1191C49.2161 39.1191 52.4545 34 48 34H22C15.3726 34 10 28.6274 10 22V16C10 9.37258 15.3726 4 22 4H66C72.6274 4 78 9.37258 78 16V22C78 28.6274 72.6274 34 66 34H62Z"/>
</mask>
<path d="M50.5 40.8799C51.8806 40.8799 52.9999 42.0258 53 43.4395C53 44.8532 51.8807 46 50.5 46C49.1193 46 48 44.8532 48 43.4395C48.0001 42.0258 49.1194 40.8799 50.5 40.8799ZM62 34C57.5455 34 56.9657 39.1191 53.0908 39.1191C49.2161 39.1191 52.4545 34 48 34H22C15.3726 34 10 28.6274 10 22V16C10 9.37258 15.3726 4 22 4H66C72.6274 4 78 9.37258 78 16V22C78 28.6274 72.6274 34 66 34H62Z" fill="var(--fill-0, white)"/>
<path d="M53 43.4395H53.5V43.4394L53 43.4395ZM48 43.4395L47.5 43.4394V43.4395H48ZM62 34V33.5V33.5V34ZM53.0908 39.1191L53.0908 39.6191H53.0908V39.1191ZM48 34V33.5V33.5V34ZM10 22H9.5V22H10ZM22 4V3.5V3.5V4ZM78 16H78.5V16H78ZM66 34V34.5V34.5V34ZM50.5 40.8799V41.3799C51.5934 41.3799 52.4999 42.2908 52.5 43.4395L53 43.4395L53.5 43.4394C53.4998 41.7609 52.1678 40.3799 50.5 40.3799V40.8799ZM53 43.4395H52.5C52.5 44.5884 51.5933 45.5 50.5 45.5V46V46.5C52.1681 46.5 53.5 45.1179 53.5 43.4395H53ZM50.5 46V45.5C49.4067 45.5 48.5 44.5884 48.5 43.4395H48H47.5C47.5 45.1179 48.8319 46.5 50.5 46.5V46ZM48 43.4395L48.5 43.4395C48.5001 42.2908 49.4066 41.3799 50.5 41.3799V40.8799V40.3799C48.8322 40.3799 47.5002 41.7609 47.5 43.4394L48 43.4395ZM62 34V33.5C59.5376 33.5 58.1469 34.9405 56.9613 36.2197C55.7414 37.536 54.7738 38.6191 53.0908 38.6191V39.1191V39.6191C55.2828 39.6191 56.5425 38.1427 57.6948 36.8994C58.8814 35.6191 60.0078 34.5 62 34.5V34ZM53.0908 39.1191L53.0908 38.6191C52.66 38.6191 52.3654 38.5478 52.1591 38.4486C51.9583 38.352 51.817 38.2175 51.7068 38.0474C51.4633 37.6716 51.3783 37.1529 51.2548 36.4705C51.1419 35.8465 50.9941 35.0807 50.5205 34.4878C50.0149 33.8549 49.2158 33.5 48 33.5V34V34.5C49.0115 34.5 49.4779 34.7849 49.7391 35.1119C50.0322 35.4788 50.1522 35.9928 50.2708 36.6486C50.3789 37.246 50.4892 38.007 50.8675 38.5911C51.0682 38.9009 51.3444 39.1664 51.7255 39.3497C52.1012 39.5304 52.553 39.6191 53.0908 39.6191L53.0908 39.1191ZM48 34V33.5H22V34V34.5H48V34ZM22 34V33.5C15.6487 33.5 10.5 28.3513 10.5 22H10H9.5C9.5 28.9036 15.0964 34.5 22 34.5V34ZM10 22H10.5V16H10H9.5V22H10ZM10 16H10.5C10.5 9.64873 15.6487 4.5 22 4.5V4V3.5C15.0964 3.5 9.5 9.09644 9.5 16H10ZM22 4V4.5H66V4V3.5H22V4ZM66 4V4.5C72.3513 4.5 77.5 9.64873 77.5 16H78H78.5C78.5 9.09644 72.9036 3.5 66 3.5V4ZM78 16H77.5V22H78H78.5V16H78ZM78 22H77.5C77.5 28.3513 72.3513 33.5 66 33.5V34V34.5C72.9036 34.5 78.5 28.9036 78.5 22H78ZM66 34V33.5H62V34V34.5H66V34Z" fill="var(--stroke-0, black)" fill-opacity="0.05" mask="url(#path-1-inside-1_0_741)"/>
</g>
<defs>
<filter id="filter0_d_0_741" x="0" y="0" width="88" height="62" filterUnits="userSpaceOnUse" color-interpolation-filters="sRGB">
<feFlood flood-opacity="0" result="BackgroundImageFix"/>
<feColorMatrix in="SourceAlpha" type="matrix" values="0 0 0 0 0 0 0 0 0 0 0 0 0 0 0 0 0 0 127 0" result="hardAlpha"/>
<feOffset dy="6"/>
<feGaussianBlur stdDeviation="5"/>
<feColorMatrix type="matrix" values="0 0 0 0 0.00129582 0 0 0 0 0.00129582 0 0 0 0 0.00129582 0 0 0 0.1 0"/>
<feBlend mode="normal" in2="BackgroundImageFix" result="effect1_dropShadow_0_741"/>
<feBlend mode="normal" in="SourceGraphic" in2="effect1_dropShadow_0_741" result="shape"/>
</filter>
</defs>
</svg>
