<svg preserveAspectRatio="none" width="100%" height="100%" overflow="visible" style="display: block;" viewBox="0 0 22 21.617" fill="none" xmlns="http://www.w3.org/2000/svg">
<g id="Union">
<mask id="path-1-inside-1_0_738" fill="white">
<path d="M13 1.08107e-09C15.326 1.08107e-09 16.4892 -0.000286386 17.4336 0.293945C19.473 0.929454 21.0705 2.52699 21.7061 4.56641C22.0003 5.51085 22 6.67403 22 9C22 11.326 22.0003 12.4892 21.7061 13.4336C21.0705 15.473 19.473 17.0705 17.4336 17.7061C16.4892 18.0003 15.326 18 13 18H11.7246L6.64063 21.4434C5.97663 21.893 5.08022 21.4171 5.08008 20.6152V17.8291C4.89942 17.7944 4.72923 17.7568 4.56641 17.7061C2.52699 17.0705 0.929454 15.473 0.293945 13.4336C-0.000286386 12.4892 1.08107e-09 11.326 1.08107e-09 9C1.08107e-09 6.67403 -0.000286386 5.51085 0.293945 4.56641C0.929454 2.52699 2.52699 0.929454 4.56641 0.293945C5.51085 -0.000286386 6.67403 1.08107e-09 9 1.08107e-09H13Z"/>
</mask>
<path d="M17.4336 0.293945L18.0286 -1.6155L18.0285 -1.61554L17.4336 0.293945ZM21.7061 4.56641L23.6155 3.97153L23.6155 3.9714L21.7061 4.56641ZM21.7061 13.4336L23.6155 14.0286L23.6155 14.0285L21.7061 13.4336ZM17.4336 17.7061L18.0285 19.6155L18.0286 19.6155L17.4336 17.7061ZM11.7246 18V16H11.1111L10.6031 16.3441L11.7246 18ZM6.64063 21.4434L7.7621 23.0993L7.76218 23.0993L6.64063 21.4434ZM5.08008 20.6152H3.08008V20.6156L5.08008 20.6152ZM5.08008 17.8291H7.08008V16.1771L5.45779 15.8651L5.08008 17.8291ZM4.56641 17.7061L3.9714 19.6155L3.97153 19.6155L4.56641 17.7061ZM0.293945 13.4336L-1.61554 14.0285L-1.6155 14.0286L0.293945 13.4336ZM0.293945 4.56641L-1.6155 3.9714L-1.61554 3.97153L0.293945 4.56641ZM4.56641 0.293945L3.97153 -1.61554L3.9714 -1.6155L4.56641 0.293945ZM13 1.08107e-09V2C15.4758 2 16.2582 2.02256 16.8387 2.20343L17.4336 0.293945L18.0285 -1.61554C16.7201 -2.02313 15.1761 -2 13 -2V1.08107e-09ZM17.4336 0.293945L16.8386 2.20339C18.2505 2.64335 19.3566 3.74951 19.7966 5.16141L21.7061 4.56641L23.6155 3.9714C22.7844 1.30447 20.6955 -0.784447 18.0286 -1.6155L17.4336 0.293945ZM21.7061 4.56641L19.7966 5.16129C19.9774 5.74184 20 6.5242 20 9H22H24C24 6.82386 24.0231 5.27985 23.6155 3.97153L21.7061 4.56641ZM22 9H20C20 11.4758 19.9774 12.2582 19.7966 12.8387L21.7061 13.4336L23.6155 14.0285C24.0231 12.7201 24 11.1761 24 9H22ZM21.7061 13.4336L19.7966 12.8386C19.3566 14.2505 18.2505 15.3566 16.8386 15.7966L17.4336 17.7061L18.0286 19.6155C20.6955 18.7844 22.7844 16.6955 23.6155 14.0286L21.7061 13.4336ZM17.4336 17.7061L16.8387 15.7966C16.2582 15.9774 15.4758 16 13 16V18V20C15.1761 20 16.7201 20.0231 18.0285 19.6155L17.4336 17.7061ZM13 18V16H11.7246V18V20H13V18ZM11.7246 18L10.6031 16.3441L5.51907 19.7874L6.64063 21.4434L7.76218 23.0993L12.8462 19.6559L11.7246 18ZM6.64063 21.4434L5.51915 19.7874C6.18443 19.3368 7.07993 19.8145 7.08008 20.6149L5.08008 20.6152L3.08008 20.6156C3.08051 23.0197 5.76884 24.4492 7.7621 23.0993L6.64063 21.4434ZM5.08008 20.6152H7.08008V17.8291H5.08008H3.08008V20.6152H5.08008ZM5.08008 17.8291L5.45779 15.8651C5.30486 15.8357 5.21909 15.8146 5.16129 15.7966L4.56641 17.7061L3.97153 19.6155C4.23936 19.699 4.49399 19.753 4.70237 19.7931L5.08008 17.8291ZM4.56641 17.7061L5.16141 15.7966C3.74951 15.3566 2.64335 14.2505 2.20339 12.8386L0.293945 13.4336L-1.6155 14.0286C-0.784447 16.6955 1.30447 18.7844 3.9714 19.6155L4.56641 17.7061ZM0.293945 13.4336L2.20343 12.8387C2.02256 12.2582 2 11.4758 2 9H1.08107e-09H-2C-2 11.1761 -2.02313 12.7201 -1.61554 14.0285L0.293945 13.4336ZM1.08107e-09 9H2C2 6.5242 2.02256 5.74184 2.20343 5.16129L0.293945 4.56641L-1.61554 3.97153C-2.02313 5.27985 -2 6.82386 -2 9H1.08107e-09ZM0.293945 4.56641L2.20339 5.16141C2.64335 3.74951 3.74951 2.64335 5.16141 2.20339L4.56641 0.293945L3.9714 -1.6155C1.30447 -0.784447 -0.784447 1.30447 -1.6155 3.9714L0.293945 4.56641ZM4.56641 0.293945L5.16129 2.20343C5.74184 2.02256 6.5242 2 9 2V1.08107e-09V-2C6.82386 -2 5.27985 -2.02313 3.97153 -1.61554L4.56641 0.293945ZM9 1.08107e-09V2H13V1.08107e-09V-2H9V1.08107e-09Z" fill="var(--stroke-0, black)" mask="url(#path-1-inside-1_0_738)"/>
</g>
</svg>
