<svg preserveAspectRatio="none" width="100%" height="100%" overflow="visible" style="display: block;" viewBox="0 0 20.1665 18.2116" fill="none" xmlns="http://www.w3.org/2000/svg">
<path id="like" d="M4.94655 1.90871C4.3504 2.02952 3.26535 2.59234 2.54655 3.6523C1.86788 4.6531 1.47255 6.16159 2.29653 8.3174C2.94181 10.0056 4.40133 11.7214 6.05541 13.1965C7.49437 14.4798 9.00787 15.5171 10.0832 16.1318C11.1586 15.5171 12.6721 14.4798 14.111 13.1965C15.7651 11.7214 17.2247 10.0056 17.8699 8.3174C18.6939 6.16159 18.2986 4.6531 17.6199 3.6523C16.9011 2.59234 15.8161 2.02952 15.2199 1.90871C12.7121 1.40051 11.3084 3.01123 10.0832 4.74298C8.85794 3.01106 7.43757 1.40391 4.94655 1.90871ZM10.0832 2.25375C11.5533 0.409598 13.5713 -0.295968 15.584 0.111904C16.6429 0.326476 18.1451 1.16026 19.1373 2.62334C20.1695 4.1456 20.6088 6.28659 19.5824 8.97195C18.7816 11.0672 17.0647 13.0189 15.3313 14.5647C13.5844 16.1226 11.7234 17.3538 10.508 17.9894L10.0832 18.2116L9.65844 17.9894C8.44302 17.3538 6.58204 16.1226 4.83517 14.5647C3.1018 13.0189 1.38486 11.0672 0.584029 8.97195C-0.442364 6.28659 -0.00308758 4.1456 1.0292 2.62334C2.02136 1.16026 3.5236 0.326476 4.58243 0.111904C6.59514 -0.295968 8.6132 0.409597 10.0832 2.25375Z" fill="var(--fill-0, black)" fill-opacity="0.48"/>
</svg>
