<svg preserveAspectRatio="none" width="100%" height="100%" overflow="visible" style="display: block;" viewBox="0 0 11.0833 12.825" fill="none" xmlns="http://www.w3.org/2000/svg">
<g id="map_pin">
<path d="M5.54167 7.58305C6.83033 7.58305 7.875 6.53838 7.875 5.24971C7.875 3.96105 6.83033 2.91638 5.54167 2.91638C4.253 2.91638 3.20833 3.96105 3.20833 5.24971C3.20833 6.53838 4.253 7.58305 5.54167 7.58305ZM6.70833 5.24971C6.70833 5.89405 6.186 6.41638 5.54167 6.41638C4.89733 6.41638 4.375 5.89405 4.375 5.24971C4.375 4.60538 4.89733 4.08305 5.54167 4.08305C6.186 4.08305 6.70833 4.60538 6.70833 5.24971Z" fill="var(--fill-0, black)"/>
<path d="M11.0833 5.49561C11.0833 2.45535 8.5971 0 5.54167 0C2.48623 0 0 2.45535 0 5.49561C0 8.2784 2.94094 11.4041 5.13753 12.7058C5.40569 12.8647 5.67767 12.8647 5.9458 12.7058C8.27563 11.3252 11.0833 8.33765 11.0833 5.49561ZM5.54167 1.16667C7.96339 1.16667 9.91667 3.11025 9.91667 5.49561C9.91667 6.54988 9.38279 7.7575 8.46794 8.93171C7.6207 10.0191 6.53408 10.9634 5.54216 11.5855C4.61496 10.9984 3.53002 10.0454 2.66425 8.93769C1.72098 7.73082 1.16667 6.50697 1.16667 5.49561C1.16667 3.11025 3.11995 1.16667 5.54167 1.16667Z" fill="var(--fill-0, black)"/>
</g>
</svg>
