<svg preserveAspectRatio="none" width="100%" height="100%" overflow="visible" style="display: block;" viewBox="0 0 22 22" fill="none" xmlns="http://www.w3.org/2000/svg">
<g id="Icon Frame - 24pt">
<g id="&#240;&#159;&#142;&#168;icon_fill -------hack">
<mask id="path-1-outside-1_0_619" maskUnits="userSpaceOnUse" x="2.92188" y="1.58875" width="16" height="19" fill="black">
<rect fill="white" x="2.92188" y="1.58875" width="16" height="19"/>
<path d="M5.69271 3.03145C5.69271 2.78695 5.4945 2.58875 5.25 2.58875H4.36458C4.12008 2.58875 3.92188 2.78695 3.92188 3.03145V9.22937C3.92188 9.47387 4.12008 9.67208 4.36458 9.67208H5.25C5.4945 9.67208 5.69271 9.47387 5.69271 9.22937V3.03145Z"/>
<path d="M5.69271 12.771C5.69271 12.5265 5.4945 12.3283 5.25 12.3283H4.36458C4.12008 12.3283 3.92188 12.5265 3.92188 12.771V18.969C3.92188 19.2135 4.12008 19.4117 4.36458 19.4117H5.25C5.4945 19.4117 5.69271 19.2135 5.69271 18.969V12.771Z"/>
<path d="M10.1198 3.03145C10.1198 2.78695 10.318 2.58875 10.5625 2.58875H11.4479C11.6924 2.58875 11.8906 2.78695 11.8906 3.03145V9.22937C11.8906 9.47387 11.6924 9.67208 11.4479 9.67208H10.5625C10.318 9.67208 10.1198 9.47387 10.1198 9.22937V3.03145Z"/>
<path d="M11.8906 12.771C11.8906 12.5265 11.6924 12.3283 11.4479 12.3283H10.5625C10.318 12.3283 10.1198 12.5265 10.1198 12.771V18.969C10.1198 19.2135 10.318 19.4117 10.5625 19.4117H11.4479C11.6924 19.4117 11.8906 19.2135 11.8906 18.969V12.771Z"/>
<path d="M16.3177 3.03145C16.3177 2.78695 16.5159 2.58875 16.7604 2.58875H17.6458C17.8903 2.58875 18.0885 2.78695 18.0885 3.03145V9.22937C18.0885 9.47387 17.8903 9.67208 17.6458 9.67208H16.7604C16.5159 9.67208 16.3177 9.47387 16.3177 9.22937V3.03145Z"/>
<path d="M18.0885 12.771C18.0885 12.5265 17.8903 12.3283 17.6458 12.3283H16.7604C16.5159 12.3283 16.3177 12.5265 16.3177 12.771V18.969C16.3177 19.2135 16.5159 19.4117 16.7604 19.4117H17.6458C17.8903 19.4117 18.0885 19.2135 18.0885 18.969V12.771Z"/>
</mask>
<path d="M5.69271 3.03145C5.69271 2.78695 5.4945 2.58875 5.25 2.58875H4.36458C4.12008 2.58875 3.92188 2.78695 3.92188 3.03145V9.22937C3.92188 9.47387 4.12008 9.67208 4.36458 9.67208H5.25C5.4945 9.67208 5.69271 9.47387 5.69271 9.22937V3.03145Z" fill="var(--fill-0, black)"/>
<path d="M5.69271 12.771C5.69271 12.5265 5.4945 12.3283 5.25 12.3283H4.36458C4.12008 12.3283 3.92188 12.5265 3.92188 12.771V18.969C3.92188 19.2135 4.12008 19.4117 4.36458 19.4117H5.25C5.4945 19.4117 5.69271 19.2135 5.69271 18.969V12.771Z" fill="var(--fill-0, black)"/>
<path d="M10.1198 3.03145C10.1198 2.78695 10.318 2.58875 10.5625 2.58875H11.4479C11.6924 2.58875 11.8906 2.78695 11.8906 3.03145V9.22937C11.8906 9.47387 11.6924 9.67208 11.4479 9.67208H10.5625C10.318 9.67208 10.1198 9.47387 10.1198 9.22937V3.03145Z" fill="var(--fill-0, black)"/>
<path d="M11.8906 12.771C11.8906 12.5265 11.6924 12.3283 11.4479 12.3283H10.5625C10.318 12.3283 10.1198 12.5265 10.1198 12.771V18.969C10.1198 19.2135 10.318 19.4117 10.5625 19.4117H11.4479C11.6924 19.4117 11.8906 19.2135 11.8906 18.969V12.771Z" fill="var(--fill-0, black)"/>
<path d="M16.3177 3.03145C16.3177 2.78695 16.5159 2.58875 16.7604 2.58875H17.6458C17.8903 2.58875 18.0885 2.78695 18.0885 3.03145V9.22937C18.0885 9.47387 17.8903 9.67208 17.6458 9.67208H16.7604C16.5159 9.67208 16.3177 9.47387 16.3177 9.22937V3.03145Z" fill="var(--fill-0, black)"/>
<path d="M18.0885 12.771C18.0885 12.5265 17.8903 12.3283 17.6458 12.3283H16.7604C16.5159 12.3283 16.3177 12.5265 16.3177 12.771V18.969C16.3177 19.2135 16.5159 19.4117 16.7604 19.4117H17.6458C17.8903 19.4117 18.0885 19.2135 18.0885 18.969V12.771Z" fill="var(--fill-0, black)"/>
<path d="M5.69271 3.03145H5.89271C5.89271 2.6765 5.60496 2.38875 5.25 2.38875V2.58875V2.78875C5.38404 2.78875 5.49271 2.89741 5.49271 3.03145H5.69271ZM5.25 2.58875V2.38875H4.36458V2.58875V2.78875H5.25V2.58875ZM4.36458 2.58875V2.38875C4.00963 2.38875 3.72187 2.6765 3.72187 3.03145H3.92188H4.12188C4.12188 2.89741 4.23054 2.78875 4.36458 2.78875V2.58875ZM3.92188 3.03145H3.72187V9.22937H3.92188H4.12188V3.03145H3.92188ZM3.92188 9.22937H3.72187C3.72187 9.58433 4.00963 9.87208 4.36458 9.87208V9.67208V9.47208C4.23054 9.47208 4.12188 9.36341 4.12188 9.22937H3.92188ZM4.36458 9.67208V9.87208H5.25V9.67208V9.47208H4.36458V9.67208ZM5.25 9.67208V9.87208C5.60496 9.87208 5.89271 9.58433 5.89271 9.22937H5.69271H5.49271C5.49271 9.36341 5.38404 9.47208 5.25 9.47208V9.67208ZM5.69271 9.22937H5.89271V3.03145H5.69271H5.49271V9.22937H5.69271ZM5.69271 12.771H5.89271C5.89271 12.4161 5.60496 12.1283 5.25 12.1283V12.3283V12.5283C5.38404 12.5283 5.49271 12.637 5.49271 12.771H5.69271ZM5.25 12.3283V12.1283H4.36458V12.3283V12.5283H5.25V12.3283ZM4.36458 12.3283V12.1283C4.00963 12.1283 3.72187 12.4161 3.72187 12.771H3.92188H4.12188C4.12188 12.637 4.23054 12.5283 4.36458 12.5283V12.3283ZM3.92188 12.771H3.72187V18.969H3.92188H4.12188V12.771H3.92188ZM3.92188 18.969H3.72187C3.72187 19.3239 4.00963 19.6117 4.36458 19.6117V19.4117V19.2117C4.23054 19.2117 4.12188 19.103 4.12188 18.969H3.92188ZM4.36458 19.4117V19.6117H5.25V19.4117V19.2117H4.36458V19.4117ZM5.25 19.4117V19.6117C5.60496 19.6117 5.89271 19.3239 5.89271 18.969H5.69271H5.49271C5.49271 19.103 5.38404 19.2117 5.25 19.2117V19.4117ZM5.69271 18.969H5.89271V12.771H5.69271H5.49271V18.969H5.69271ZM10.1198 3.03145H10.3198C10.3198 2.89741 10.4285 2.78875 10.5625 2.78875V2.58875V2.38875C10.2075 2.38875 9.91979 2.6765 9.91979 3.03145H10.1198ZM10.5625 2.58875V2.78875H11.4479V2.58875V2.38875H10.5625V2.58875ZM11.4479 2.58875V2.78875C11.582 2.78875 11.6906 2.89741 11.6906 3.03145H11.8906H12.0906C12.0906 2.6765 11.8029 2.38875 11.4479 2.38875V2.58875ZM11.8906 3.03145H11.6906V9.22937H11.8906H12.0906V3.03145H11.8906ZM11.8906 9.22937H11.6906C11.6906 9.36341 11.582 9.47208 11.4479 9.47208V9.67208V9.87208C11.8029 9.87208 12.0906 9.58433 12.0906 9.22937H11.8906ZM11.4479 9.67208V9.47208H10.5625V9.67208V9.87208H11.4479V9.67208ZM10.5625 9.67208V9.47208C10.4285 9.47208 10.3198 9.36341 10.3198 9.22937H10.1198H9.91979C9.91979 9.58433 10.2075 9.87208 10.5625 9.87208V9.67208ZM10.1198 9.22937H10.3198V3.03145H10.1198H9.91979V9.22937H10.1198ZM11.8906 12.771H12.0906C12.0906 12.4161 11.8029 12.1283 11.4479 12.1283V12.3283V12.5283C11.582 12.5283 11.6906 12.637 11.6906 12.771H11.8906ZM11.4479 12.3283V12.1283H10.5625V12.3283V12.5283H11.4479V12.3283ZM10.5625 12.3283V12.1283C10.2075 12.1283 9.91979 12.4161 9.91979 12.771H10.1198H10.3198C10.3198 12.637 10.4285 12.5283 10.5625 12.5283V12.3283ZM10.1198 12.771H9.91979V18.969H10.1198H10.3198V12.771H10.1198ZM10.1198 18.969H9.91979C9.91979 19.3239 10.2075 19.6117 10.5625 19.6117V19.4117V19.2117C10.4285 19.2117 10.3198 19.103 10.3198 18.969H10.1198ZM10.5625 19.4117V19.6117H11.4479V19.4117V19.2117H10.5625V19.4117ZM11.4479 19.4117V19.6117C11.8029 19.6117 12.0906 19.3239 12.0906 18.969H11.8906H11.6906C11.6906 19.103 11.582 19.2117 11.4479 19.2117V19.4117ZM11.8906 18.969H12.0906V12.771H11.8906H11.6906V18.969H11.8906ZM16.3177 3.03145H16.5177C16.5177 2.89741 16.6264 2.78875 16.7604 2.78875V2.58875V2.38875C16.4055 2.38875 16.1177 2.6765 16.1177 3.03145H16.3177ZM16.7604 2.58875V2.78875H17.6458V2.58875V2.38875H16.7604V2.58875ZM17.6458 2.58875V2.78875C17.7799 2.78875 17.8885 2.89741 17.8885 3.03145H18.0885H18.2885C18.2885 2.6765 18.0008 2.38875 17.6458 2.38875V2.58875ZM18.0885 3.03145H17.8885V9.22937H18.0885H18.2885V3.03145H18.0885ZM18.0885 9.22937H17.8885C17.8885 9.36341 17.7799 9.47208 17.6458 9.47208V9.67208V9.87208C18.0008 9.87208 18.2885 9.58433 18.2885 9.22937H18.0885ZM17.6458 9.67208V9.47208H16.7604V9.67208V9.87208H17.6458V9.67208ZM16.7604 9.67208V9.47208C16.6264 9.47208 16.5177 9.36341 16.5177 9.22937H16.3177H16.1177C16.1177 9.58433 16.4055 9.87208 16.7604 9.87208V9.67208ZM16.3177 9.22937H16.5177V3.03145H16.3177H16.1177V9.22937H16.3177ZM18.0885 12.771H18.2885C18.2885 12.4161 18.0008 12.1283 17.6458 12.1283V12.3283V12.5283C17.7799 12.5283 17.8885 12.637 17.8885 12.771H18.0885ZM17.6458 12.3283V12.1283H16.7604V12.3283V12.5283H17.6458V12.3283ZM16.7604 12.3283V12.1283C16.4055 12.1283 16.1177 12.4161 16.1177 12.771H16.3177H16.5177C16.5177 12.637 16.6264 12.5283 16.7604 12.5283V12.3283ZM16.3177 12.771H16.1177V18.969H16.3177H16.5177V12.771H16.3177ZM16.3177 18.969H16.1177C16.1177 19.3239 16.4055 19.6117 16.7604 19.6117V19.4117V19.2117C16.6264 19.2117 16.5177 19.103 16.5177 18.969H16.3177ZM16.7604 19.4117V19.6117H17.6458V19.4117V19.2117H16.7604V19.4117ZM17.6458 19.4117V19.6117C18.0008 19.6117 18.2885 19.3239 18.2885 18.969H18.0885H17.8885C17.8885 19.103 17.7799 19.2117 17.6458 19.2117V19.4117ZM18.0885 18.969H18.2885V12.771H18.0885H17.8885V18.969H18.0885Z" fill="var(--stroke-0, black)" mask="url(#path-1-outside-1_0_619)"/>
</g>
</g>
</svg>
