<svg preserveAspectRatio="none" width="100%" height="100%" overflow="visible" style="display: block;" viewBox="0 0 18.9302 18.9302" fill="none" xmlns="http://www.w3.org/2000/svg">
<path id="pencil" fill-rule="evenodd" clip-rule="evenodd" d="M18.2589 3.26394C19.1539 4.15889 19.1539 5.60989 18.2589 6.50484L9.6525 15.1113C8.03154 16.7322 5.99222 17.8712 3.7619 18.4009L1.69361 18.8918C0.697526 19.1284 -0.198236 18.2326 0.0383397 17.2365L0.529223 15.1683C1.05898 12.9379 2.19792 10.8986 3.81887 9.27765L12.4253 0.671213C13.3203 -0.223737 14.7713 -0.223738 15.6662 0.671213L18.2589 3.26394ZM10.3187 5.37053L5.11523 10.574C3.73438 11.9549 2.76424 13.6924 2.31299 15.5924L1.99396 16.9362L3.3378 16.6172C5.23777 16.1659 6.97528 15.1958 8.35614 13.8149L13.5596 8.61143L10.3187 5.37053ZM14.3699 1.96758C14.1909 1.78859 13.9007 1.78859 13.7217 1.96758L11.6151 4.07416L14.856 7.31507L16.9626 5.20848C17.1416 5.02949 17.1416 4.73929 16.9626 4.5603L14.3699 1.96758Z" fill="var(--fill-0, black)"/>
</svg>
