<svg preserveAspectRatio="none" width="100%" height="100%" overflow="visible" style="display: block;" viewBox="0 0 14.1263 12.8125" fill="none" xmlns="http://www.w3.org/2000/svg">
<g id="person_star">
<path d="M5.30645 0C7.03458 0 8.43145 1.4 8.43145 3.125C8.43145 4.85 7.03458 6.25 5.30645 6.25C3.58145 6.25 2.18145 4.85 2.18145 3.125C2.18145 1.4 3.58145 0 5.30645 0ZM5.30645 1.25C4.27208 1.25 3.43145 2.09062 3.43145 3.125C3.43145 4.15937 4.27208 5 5.30645 5C6.34395 5 7.18145 4.15937 7.18145 3.125C7.18145 2.09062 6.34395 1.25 5.30645 1.25Z" fill="var(--fill-0, #FE2C55)"/>
<path d="M5.30645 7.1875C5.75943 7.1875 6.18811 7.23085 6.59062 7.31407C6.18694 7.57209 5.93262 8.00516 5.87291 8.46603C5.69068 8.44713 5.50182 8.4375 5.30645 8.4375C2.78145 8.4375 1.34395 10.05 1.2502 12.5C1.24395 12.6719 1.10645 12.8125 0.931451 12.8125H0.306451C0.134576 12.8125 -0.00604898 12.6719 0.000200568 12.5C0.103326 9.37187 2.09395 7.1875 5.30645 7.1875Z" fill="var(--fill-0, #FE2C55)"/>
<path d="M10.9433 6.2547C10.8411 5.94106 10.3979 5.94106 10.2956 6.2547L9.69903 8.08538C9.65471 8.22516 9.52517 8.32061 9.37517 8.32061H7.45244C7.12176 8.32061 6.9854 8.74334 7.2513 8.93766L8.80926 10.0661C8.92858 10.1547 8.9763 10.3081 8.93199 10.4479L8.3388 12.2752C8.23653 12.5922 8.59449 12.8513 8.8638 12.657L10.4183 11.5286C10.5377 11.4399 10.7013 11.4399 10.8206 11.5286L12.3752 12.657C12.6411 12.8513 13.0024 12.5922 12.9002 12.2752L12.307 10.4479C12.2593 10.3081 12.3104 10.1547 12.4297 10.0661L13.9843 8.93766C14.2536 8.74334 14.1138 8.32061 13.7831 8.32061H11.8604C11.7138 8.32061 11.5843 8.22516 11.5365 8.08538L10.9433 6.2547Z" fill="var(--fill-0, #FE2C55)"/>
</g>
</svg>
