<svg preserveAspectRatio="none" width="100%" height="100%" overflow="visible" style="display: block;" viewBox="0 0 12.2649 12.2649" fill="none" xmlns="http://www.w3.org/2000/svg">
<path id="phone" fill-rule="evenodd" clip-rule="evenodd" d="M0.925037 0.7403C1.59854 -0.213101 2.99894 -0.25239 3.72484 0.661749C3.74725 0.689974 3.77268 0.724831 3.803 0.766392L5.04927 2.47425C5.12015 2.57136 5.18921 2.66598 5.24259 2.75046C5.30095 2.84285 5.36332 2.95739 5.39847 3.09811C5.47463 3.40296 5.4246 3.72564 5.2597 3.99311C5.18359 4.11658 5.08947 4.20686 5.00587 4.27723C4.92942 4.34158 4.83495 4.41084 4.738 4.48192L4.2579 4.834C4.90133 6.23754 6.02736 7.36357 7.4309 8.007L7.78295 7.52694C7.85404 7.42998 7.92331 7.3355 7.98767 7.25903C8.05804 7.17543 8.14832 7.08131 8.27179 7.0052C8.53926 6.8403 8.86194 6.79027 9.16679 6.86643C9.30751 6.90158 9.42206 6.96395 9.51444 7.02231C9.59892 7.07569 9.69354 7.14475 9.79065 7.21563L11.4985 8.46191C11.5401 8.49222 11.5749 8.51765 11.6032 8.54006C12.5173 9.26596 12.478 10.6664 11.5246 11.3399C11.4952 11.3607 11.459 11.3841 11.4158 11.412L11.179 11.5652C9.89338 12.3971 8.26567 12.4938 6.89063 11.8199C4.08658 10.4458 1.81906 8.17832 0.444958 5.37427C-0.228871 3.99923 -0.132189 2.37152 0.699675 1.08592L0.852865 0.849166C0.880807 0.805967 0.904241 0.769739 0.925037 0.7403ZM2.81119 1.38726C2.56923 1.08254 2.10242 1.09564 1.87792 1.41344C1.8729 1.42055 1.86391 1.43421 1.82587 1.493L1.67917 1.71971C1.06984 2.6614 0.999023 3.85368 1.4926 4.86088C2.75281 7.43252 4.83238 9.51209 7.40402 10.7723C8.41122 11.2659 9.6035 11.1951 10.5452 10.5857L10.7719 10.439C10.8307 10.401 10.8444 10.392 10.8515 10.387C11.1693 10.1625 11.1824 9.69567 10.8776 9.45371C10.8708 9.44829 10.8577 9.43855 10.8011 9.39727L9.11517 8.16698C9.00113 8.08376 8.9386 8.03851 8.8913 8.00863C8.88908 8.00722 8.88699 8.00592 8.88502 8.0047C8.88351 8.00646 8.88192 8.00833 8.88022 8.01034C8.84419 8.05315 8.7983 8.11521 8.71481 8.22906L8.32186 8.76491C8.02668 9.16742 7.49114 9.31022 7.03475 9.10811C5.30517 8.34218 3.92272 6.95973 3.15679 5.23015C2.95468 4.77376 3.09748 4.23822 3.49999 3.94304L4.03584 3.55009C4.14969 3.4666 4.21175 3.42071 4.25456 3.38468C4.25657 3.38299 4.25845 3.38139 4.2602 3.37988C4.25898 3.37791 4.25768 3.37582 4.25627 3.3736C4.22639 3.3263 4.18114 3.26377 4.09792 3.14973L2.86763 1.46378C2.82635 1.40721 2.81661 1.39407 2.81119 1.38726Z" fill="var(--fill-0, black)"/>
</svg>
