<svg preserveAspectRatio="none" width="100%" height="100%" overflow="visible" style="display: block;" viewBox="0 0 21.2354 17.4167" fill="none" xmlns="http://www.w3.org/2000/svg">
<path id="Repost" fill-rule="evenodd" clip-rule="evenodd" d="M7.51466 6.24501C7.31715 6.40332 7.02869 6.37155 6.87037 6.17404L5.06454 3.92118V10.6334C5.06454 11.6752 5.06525 12.4015 5.11145 12.967C5.15677 13.5217 5.24127 13.8404 5.36427 14.0818C5.62792 14.5993 6.04862 15.02 6.56607 15.2836C6.80748 15.4066 7.12619 15.4911 7.68093 15.5365C8.24637 15.5827 8.97266 15.5834 10.0145 15.5834H11.0806C11.3337 15.5834 11.5389 15.7886 11.5389 16.0417L11.539 16.9584C11.539 17.2115 11.3337 17.4167 11.0806 17.4167L9.97536 17.4167C8.98188 17.4167 8.18053 17.4167 7.53164 17.3637C6.86353 17.3091 6.27669 17.1938 5.73375 16.9171C4.87134 16.4777 4.17018 15.7766 3.73076 14.9142C3.45412 14.3712 3.33879 13.7844 3.2842 13.1163C3.23119 12.4674 3.23119 11.6661 3.2312 10.6726L3.2312 3.9884L1.54397 6.15904C1.38862 6.35889 1.10067 6.39497 0.900813 6.23963L0.177072 5.67706C-0.0227829 5.52171 -0.0588631 5.23376 0.0964846 5.03391L3.78185 0.292682C3.96361 0.0588446 4.3161 0.0562095 4.50134 0.287303L8.30087 5.0274C8.45919 5.22491 8.42742 5.51336 8.22991 5.67168L7.51466 6.24501ZM20.3476 11.172C20.1499 11.0139 19.8615 11.0459 19.7034 11.2436L17.9554 13.4284V6.74411C17.9554 5.75068 17.9554 4.9493 17.9024 4.30044C17.8478 3.63232 17.7325 3.04548 17.4558 2.50255C17.0164 1.64014 16.3153 0.938975 15.4529 0.499555C14.9099 0.222915 14.3231 0.107587 13.655 0.0529996C13.0061 -1.55683e-05 12.2048 -8.51836e-06 11.2114 2.2367e-07H10.1639C9.91082 2.2367e-07 9.70561 0.205203 9.70561 0.458334V1.375C9.70561 1.62813 9.91082 1.83334 10.1639 1.83334H11.1721C12.2139 1.83334 12.9402 1.83405 13.5057 1.88025C14.0604 1.92557 14.3791 2.01006 14.6205 2.13307C15.138 2.39672 15.5587 2.81742 15.8223 3.33486C15.9453 3.57628 16.0298 3.89499 16.0752 4.44973C16.1213 5.01517 16.1221 5.74145 16.1221 6.78334V13.4286L14.3742 11.2436C14.2161 11.046 13.9277 11.0139 13.73 11.172L13.0142 11.7447C12.8165 11.9028 12.7845 12.1912 12.9426 12.3889L16.6806 17.0617C16.8641 17.291 17.2129 17.291 17.3964 17.0617L21.1349 12.3889C21.293 12.1913 21.261 11.9028 21.0634 11.7447L20.3476 11.172Z" fill="var(--fill-0, black)" fill-opacity="0.48"/>
</svg>
