<svg preserveAspectRatio="none" width="100%" height="100%" overflow="visible" style="display: block;" viewBox="0 0 13.9949 10.9986" fill="none" xmlns="http://www.w3.org/2000/svg">
<path id="school" fill-rule="evenodd" clip-rule="evenodd" d="M6.03127 0.184258C6.65193 -0.0614193 7.34287 -0.0614191 7.96352 0.184258L13.4105 2.34035C13.5019 2.37653 13.5826 2.4242 13.6527 2.48045C13.6555 2.48258 13.6584 2.4848 13.6612 2.48712C13.8825 2.66928 13.9943 2.93801 13.9949 3.19769L13.9949 6.84512C13.9949 7.00621 13.8643 7.13679 13.7032 7.13679H13.1199C12.9588 7.13679 12.8282 7.00621 12.8282 6.84512V4.29021L11.6638 4.75111L11.6638 7.50361C11.6638 7.63456 11.6638 7.72456 11.6589 7.80976C11.598 8.85219 10.9845 9.78256 10.0504 10.2491C9.974 10.2873 9.89127 10.3227 9.7709 10.3743L9.74135 10.387C9.5283 10.4783 9.40543 10.5309 9.28395 10.5773C7.81117 11.139 6.18314 11.139 4.71036 10.5773C4.58887 10.5309 4.46599 10.4783 4.25291 10.3869L4.22342 10.3743C4.10304 10.3227 4.02031 10.2873 3.94395 10.2491C3.00977 9.78256 2.39629 8.85219 2.33544 7.80976C2.33047 7.72456 2.33047 7.63456 2.33048 7.50361L2.33049 4.75092L0.584292 4.05972C-0.194765 3.75134 -0.194763 2.64873 0.584292 2.34035L6.03127 0.184258ZM7.96352 6.21582L10.4972 5.21292V7.4859C10.4972 7.64117 10.4969 7.69491 10.4942 7.74177C10.4577 8.36723 10.0896 8.92546 9.52907 9.20539C9.48707 9.22637 9.43778 9.24776 9.29506 9.30892C9.06512 9.40747 8.96493 9.45028 8.86817 9.48719C7.66316 9.94681 6.33114 9.94681 5.12614 9.48719C5.02937 9.45028 4.92919 9.40747 4.69924 9.30892C4.55653 9.24776 4.50723 9.22637 4.46523 9.20539C3.90473 8.92546 3.53664 8.36723 3.50013 7.74177C3.49739 7.69491 3.49715 7.64117 3.49715 7.4859V5.21273L6.03127 6.21582C6.65193 6.46149 7.34287 6.46149 7.96352 6.21582ZM7.53413 1.26903C7.18932 1.13255 6.80547 1.13255 6.46066 1.26903L1.58233 3.20004L6.46066 5.13104C6.80547 5.26753 7.18932 5.26753 7.53413 5.13104L12.4125 3.20004L7.53413 1.26903Z" fill="var(--fill-0, black)"/>
</svg>
