<svg preserveAspectRatio="none" width="100%" height="100%" overflow="visible" style="display: block;" viewBox="0 0 10.2801 11" fill="none" xmlns="http://www.w3.org/2000/svg">
<path id="Union" d="M5.13956 0C6.46559 0.000103182 7.58553 0.985466 7.75382 2.30078L8.00284 4.25098H9.03214C9.50129 4.25098 9.73601 4.25099 9.90616 4.3457C10.0555 4.42889 10.172 4.56033 10.2362 4.71875C10.3094 4.89924 10.2812 5.13209 10.2235 5.59766L9.90225 8.19336C9.77929 9.18707 9.71771 9.68413 9.48428 10.0586C9.27868 10.3884 8.98134 10.6509 8.62882 10.8145C8.22852 11.0001 7.72776 11 6.72647 11H3.55362C2.55246 11 2.05155 11.0001 1.65128 10.8145C1.29879 10.6509 1.00139 10.3884 0.795807 10.0586C0.562381 9.68413 0.500797 9.18707 0.377839 8.19336L0.0565496 5.59766C-0.00105697 5.1321 -0.0292941 4.89923 0.0438543 4.71875C0.108101 4.56031 0.224567 4.4289 0.373932 4.3457C0.544094 4.25093 0.778697 4.25098 1.24796 4.25098H2.27628L2.5253 2.30078C2.6936 0.985398 3.81344 0 5.13956 0ZM5.13956 1.75C4.69406 1.75 4.31814 2.08154 4.26163 2.52344L4.04092 4.25098H6.23819L6.01749 2.52344C5.96098 2.0816 5.58497 1.7501 5.13956 1.75Z" fill="url(#paint0_linear_0_675)"/>
<defs>
<linearGradient id="paint0_linear_0_675" x1="8.43885" y1="11.0575" x2="8.43885" y2="-0.0586206" gradientUnits="userSpaceOnUse">
<stop stop-color="#F5A0FF"/>
<stop offset="0.716346" stop-color="#FE2C55"/>
</linearGradient>
</defs>
</svg>
