<svg preserveAspectRatio="none" width="100%" height="100%" overflow="visible" style="display: block;" viewBox="0 0 12.3133 12.3133" fill="none" xmlns="http://www.w3.org/2000/svg">
<path id="Tint" d="M10.7528 0.146324C10.9479 -0.0488426 11.2645 -0.0486528 11.4598 0.146324L12.1668 0.853356C12.3621 1.04862 12.3621 1.36512 12.1668 1.56039L7.57113 6.15707L12.1668 10.7528C12.3621 10.948 12.3621 11.2645 12.1668 11.4598L11.4598 12.1668C11.2645 12.3621 10.948 12.3621 10.7528 12.1668L6.15707 7.57113L1.56039 12.1668C1.36512 12.3621 1.04862 12.3621 0.853356 12.1668L0.146324 11.4598C-0.0486528 11.2645 -0.0488426 10.9479 0.146324 10.7528L4.743 6.15707L0.146324 1.56039C-0.0486934 1.36511 -0.0488562 1.04854 0.146324 0.853356L0.853356 0.146324C1.04854 -0.0488562 1.36511 -0.0486934 1.56039 0.146324L6.15707 4.743L10.7528 0.146324Z" fill="var(--fill-0, black)"/>
</svg>
