<svg preserveAspectRatio="none" width="100%" height="100%" overflow="visible" style="display: block;" viewBox="0 0 18.5938 18.5938" fill="none" xmlns="http://www.w3.org/2000/svg">
<g id="Group 2053139701">
<path id="Star 8" d="M8.70117 1.34277C9.07052 1.13343 9.52323 1.13441 9.89258 1.34375L12.9092 3.05371L15.8867 4.80469C16.2527 5.01988 16.479 5.4114 16.4824 5.83594L16.5098 9.30371L16.4824 12.7578C16.479 13.1823 16.2527 13.5739 15.8867 13.7891L12.9092 15.54L9.89258 17.251C9.52323 17.4603 9.07052 17.4603 8.70117 17.251L5.68457 15.54L2.70703 13.7891C2.34106 13.5739 2.1147 13.1823 2.11133 12.7578L2.08398 9.30371L2.11133 5.83594C2.1147 5.4114 2.34106 5.01988 2.70703 4.80469L5.68457 3.05371L8.70117 1.34277Z" stroke="var(--stroke-0, black)" stroke-width="1.75"/>
<rect id="Rectangle 279334209" width="5.76542" height="5.89505" rx="0.2975" transform="matrix(-0.866025 0.5 0 1 14.2891 6.17969)" fill="var(--fill-0, black)"/>
</g>
</svg>
